#N canvas -9 -9 1920 1026 10;
#X obj -42 306 moses 100;
#X obj -42 377 moses 75;
#X msg 24 231 127;
#X msg 24 272 60;
#X obj 181 668 bng 15 250 50 0 empty empty empty 17 7 0 10 -262144
-1 -1;
#X msg 24 251 85;
#N canvas 448 55 1440 851 trigger_samples_for_velocity_of_100-127 0
;
#N canvas 0 22 450 300 (subpatch) 0;
#X array sampler.A4 70671 float 2;
#X coords 0 1 70671 -1 600 100 1 0 0;
#X restore 326 78 graph;
#X obj 329 44 hsl 600 15 0 1 0 0 empty empty empty -2 -8 0 10 -262144
-1 -1 0 1;
#X obj -89 40 bng 15 250 50 0 empty empty empty 17 7 0 10 -262144 -1
-1;
#X obj -89 125 soundfiler;
#X obj -88 65 openpanel;
#X floatatom -88 321 10 0 0 0 - - -;
#X floatatom -73 820 12 0 0 0 - - -;
#X obj -88 846 *~;
#X obj 76 245 samplerate~;
#X floatatom -88 271 15 0 0 0 - - -;
#X floatatom -89 152 12 0 0 0 - - -;
#X obj -88 595 *;
#X floatatom -73 572 10 0 0 0 - - -;
#X floatatom 78 273 10 0 0 0 - - -;
#X floatatom -88 397 10 0 0 0 - - -;
#X floatatom -88 619 10 0 0 0 - - -;
#X obj -13 744 nbx 5 14 -1e+037 1e+037 0 0 empty empty empty 0 -8 0
10 -262144 -1 -1 0 256;
#X obj -13 719 unsig~ 1;
#X obj -73 879 unsig~ 1;
#X msg -88 497 \$1 \$2;
#X obj -88 473 pack f f;
#X floatatom -43 446 10 0 0 0 - - -;
#X obj -88 521 line;
#X obj 76 224 loadbang;
#X obj -88 296 expr $f2 / $f1;
#X floatatom -73 902 12 0 0 0 - - -;
#X obj -89 16 inlet;
#X obj 329 927 outlet~;
#X obj 330 896 *~ 1;
#X obj 358 471 bng 15 250 50 0 empty empty empty 17 7 0 10 -262144
-1 -1;
#X obj 359 496 t b b;
#X obj 707 549 samplerate~;
#X floatatom 605 573 15 0 0 0 - - -;
#X floatatom 707 570 10 0 0 0 - - -;
#X obj 707 528 loadbang;
#X obj 706 502 bng 15 250 50 0 empty empty empty 17 7 0 10 -262144
-1 -1;
#X floatatom 622 629 10 0 0 0 - - -;
#X msg 360 636 0;
#X text 87 602 comment;
#X text 387 636 parar;
#X text 405 557 reproducir;
#X obj 361 560 bng 15 250 50 0 empty empty empty 17 7 0 10 -262144
-1 -1;
#X floatatom 2 582 5 0 0 0 - - -;
#X obj 550 675 bng 15 250 50 0 empty empty empty 17 7 0 10 -262144
-1 -1;
#X text 379 468 impluso de entrada;
#X text 796 606 cuenta para stop antes de repetir sample como loop
;
#X obj 360 604 loadbang;
#X msg 572 673 0;
#X obj 550 649 delay 6000;
#X msg 450 636 0;
#X obj 550 725 delay 10;
#X text 12 56 carga de sample;
#X obj 357 327 inlet;
#X obj 17 114 print;
#X obj -89 696 phasor~ 0;
#X msg 549 748 0;
#X obj -89 177 s \$0-cantidad-de-muestras3;
#X obj -88 206 r \$0-cantidad-de-muestras3;
#X obj -23 342 s \$0-frecuencia-de-lectura-sin-transposicion3;
#X obj -43 422 r \$0-frecuencia-de-lectura-interpolacion3;
#X obj 15 527 r \$0-frecuencia-de-lectura-sin-transposicion3;
#X obj 72 642 r pararsample3;
#X obj 168 643 r retrigger3;
#X obj -14 766 s \$0-posicion3;
#X obj -73 796 r \$0-cantidad-de-muestras3;
#X obj -88 976 s~ \$0-phasor3;
#X obj 329 807 r~ \$0-phasor3;
#X obj 548 780 s retrigger3;
#X obj 571 700 s pararsample3;
#X obj 360 673 s pararsample3;
#X obj 451 673 s retrigger3;
#X obj 606 482 r \$0-cantidad-de-muestras3;
#X obj 326 20 r \$0-posicion3;
#X obj 605 606 expr (($f1 / $f2) * 1000) - 0.1;
#X obj 583 541 bng 15 250 50 0 empty empty empty 17 7 0 10 -262144
-1 -1;
#X obj 96 200 bng 15 250 50 0 empty empty empty 17 7 0 10 -262144 -1
-1;
#X obj -19 66 loadbang;
#X msg -89 88 read -resize aguila/4.wav sampler.A4;
#X obj 329 832 tabread4~ sampler.A4;
#X connect 2 0 4 0;
#X connect 3 0 10 0;
#X connect 4 0 77 0;
#X connect 5 0 14 0;
#X connect 5 0 12 0;
#X connect 5 0 58 0;
#X connect 6 0 7 1;
#X connect 7 0 18 0;
#X connect 7 0 65 0;
#X connect 8 0 13 0;
#X connect 9 0 24 0;
#X connect 10 0 56 0;
#X connect 11 0 15 0;
#X connect 12 0 11 1;
#X connect 13 0 24 1;
#X connect 14 0 20 0;
#X connect 15 0 54 0;
#X connect 16 0 63 0;
#X connect 17 0 16 0;
#X connect 18 0 25 0;
#X connect 19 0 22 0;
#X connect 20 0 19 0;
#X connect 21 0 20 1;
#X connect 22 0 11 0;
#X connect 23 0 8 0;
#X connect 24 0 5 0;
#X connect 26 0 2 0;
#X connect 28 0 27 0;
#X connect 29 0 30 0;
#X connect 30 0 41 0;
#X connect 30 0 49 0;
#X connect 30 1 48 0;
#X connect 31 0 33 0;
#X connect 32 0 73 0;
#X connect 33 0 73 1;
#X connect 34 0 31 0;
#X connect 35 0 34 0;
#X connect 37 0 69 0;
#X connect 41 0 42 0;
#X connect 42 0 54 0;
#X connect 43 0 50 0;
#X connect 46 0 37 0;
#X connect 47 0 68 0;
#X connect 48 0 43 0;
#X connect 48 0 47 0;
#X connect 49 0 70 0;
#X connect 50 0 55 0;
#X connect 52 0 29 0;
#X connect 54 0 7 0;
#X connect 54 0 17 0;
#X connect 55 0 67 0;
#X connect 57 0 9 0;
#X connect 59 0 21 0;
#X connect 60 0 42 0;
#X connect 61 0 54 0;
#X connect 62 0 54 1;
#X connect 64 0 6 0;
#X connect 66 0 78 0;
#X connect 71 0 32 0;
#X connect 72 0 1 0;
#X connect 73 0 36 0;
#X connect 73 0 48 0;
#X connect 74 0 32 0;
#X connect 75 0 23 0;
#X connect 76 0 77 0;
#X connect 77 0 3 0;
#X connect 77 0 53 0;
#X connect 78 0 28 0;
#X restore 176 810 pd trigger_samples_for_velocity_of_100-127;
#X obj -74 251 stripnote;
#X obj -53 -103 midiin;
#X obj -55 -79 midiparse;
#X msg -67 188 14;
#X obj -36 160 bng 15 250 50 0 empty empty empty 17 7 0 10 -262144
-1 -1;
#X obj -53 122 route 1;
#X text -42 2 routea según cada nota midi;
#X obj -47 664 bng 15 250 50 0 empty empty empty 17 7 0 10 -262144
-1 -1;
#X text 84 666 triggea sample;
#X obj 336 723 bng 15 250 50 0 empty empty empty 17 7 0 10 -262144
-1 -1;
#X obj 96 725 bng 15 250 50 0 empty empty empty 17 7 0 10 -262144 -1
-1;
#X text 219 729 triggea sample;
#N canvas 835 112 914 761 trigger_samples_for_velocity_of_76-99 0;
#N canvas 0 22 450 300 (subpatch) 0;
#X array sampler.A3 61418 float 2;
#X coords 0 1 61418 -1 600 100 1 0 0;
#X restore 316 68 graph;
#X obj 319 34 hsl 600 15 0 1 0 0 empty empty empty -2 -8 0 10 -262144
-1 -1 0 1;
#X obj -99 30 bng 15 250 50 0 empty empty empty 17 7 0 10 -262144 -1
-1;
#X obj -99 115 soundfiler;
#X obj -98 55 openpanel;
#X floatatom -98 311 10 0 0 0 - - -;
#X floatatom -83 810 12 0 0 0 - - -;
#X obj -98 836 *~;
#X obj -17 240 samplerate~;
#X floatatom -98 261 15 0 0 0 - - -;
#X floatatom -99 142 12 0 0 0 - - -;
#X obj -98 585 *;
#X floatatom -83 562 10 0 0 0 - - -;
#X floatatom -17 261 10 0 0 0 - - -;
#X floatatom -98 387 10 0 0 0 - - -;
#X floatatom -98 609 10 0 0 0 - - -;
#X obj -23 734 nbx 5 14 -1e+037 1e+037 0 0 empty empty empty 0 -8 0
10 -262144 -1 -1 0 256;
#X obj -23 709 unsig~ 1;
#X obj -83 869 unsig~ 1;
#X msg -98 487 \$1 \$2;
#X obj -98 463 pack f f;
#X floatatom -53 436 10 0 0 0 - - -;
#X obj -98 511 line;
#X obj -17 219 loadbang;
#X obj -98 286 expr $f2 / $f1;
#X floatatom -83 892 12 0 0 0 - - -;
#X obj -99 6 inlet;
#X obj 319 917 outlet~;
#X obj 320 886 *~ 1;
#X obj 348 461 bng 15 250 50 0 empty empty empty 17 7 0 10 -262144
-1 -1;
#X obj 349 486 t b b;
#X obj 697 539 samplerate~;
#X floatatom 595 563 15 0 0 0 - - -;
#X floatatom 697 560 10 0 0 0 - - -;
#X obj 697 518 loadbang;
#X obj 696 492 bng 15 250 50 0 empty empty empty 17 7 0 10 -262144
-1 -1;
#X floatatom 612 619 10 0 0 0 - - -;
#X msg 350 626 0;
#X text 77 592 comment;
#X text 377 626 parar;
#X text 395 547 reproducir;
#X obj 351 550 bng 15 250 50 0 empty empty empty 17 7 0 10 -262144
-1 -1;
#X floatatom -8 572 5 0 0 0 - - -;
#X obj 540 665 bng 15 250 50 0 empty empty empty 17 7 0 10 -262144
-1 -1;
#X text 369 458 impluso de entrada;
#X text 786 596 cuenta para stop antes de repetir sample como loop
;
#X obj 350 594 loadbang;
#X msg 562 663 0;
#X obj 595 596 expr (($f1 / $f2) * 1000) - 0.1;
#X obj 540 639 delay 6000;
#X msg 440 626 0;
#X obj 540 715 delay 10;
#X obj 347 317 inlet;
#X obj -98 966 s~ \$0-phasor2;
#X obj 319 797 r~ \$0-phasor2;
#X obj 561 690 s pararsample2;
#X obj 538 770 s retrigger2;
#X obj 441 663 s retrigger2;
#X obj 350 663 s pararsample2;
#X obj 62 632 r pararsample2;
#X obj 158 633 r retrigger2;
#X obj -53 412 r \$0-frecuencia-de-lectura-interpolacion2;
#X obj -33 332 s \$0-frecuencia-de-lectura-sin-transposicion2;
#X obj 5 516 r \$0-frecuencia-de-lectura-sin-transposicion2;
#X obj 596 472 r \$0-cantidad-de-muestras2;
#X obj -99 167 s \$0-cantidad-de-muestras2;
#X obj -98 196 r \$0-cantidad-de-muestras2;
#X obj 7 104 print;
#X obj -83 786 r \$0-cantidad-de-muestras2;
#X obj -99 686 phasor~ 0;
#X obj -23 756 s \$0-posicion2;
#X obj 316 10 r \$0-posicion2;
#X msg 539 738 0;
#X obj -32 57 loadbang;
#X text -71 29 comment;
#X obj 319 822 tabread4~ sampler.A3;
#X msg -98 78 read -resize aguila/2.wav sampler.A3;
#X connect 2 0 4 0;
#X connect 3 0 10 0;
#X connect 4 0 76 0;
#X connect 5 0 14 0;
#X connect 5 0 12 0;
#X connect 5 0 62 0;
#X connect 6 0 7 1;
#X connect 7 0 18 0;
#X connect 7 0 53 0;
#X connect 8 0 13 0;
#X connect 9 0 24 0;
#X connect 10 0 65 0;
#X connect 11 0 15 0;
#X connect 12 0 11 1;
#X connect 13 0 24 1;
#X connect 14 0 20 0;
#X connect 15 0 69 0;
#X connect 16 0 70 0;
#X connect 17 0 16 0;
#X connect 18 0 25 0;
#X connect 19 0 22 0;
#X connect 20 0 19 0;
#X connect 21 0 20 1;
#X connect 22 0 11 0;
#X connect 23 0 8 0;
#X connect 24 0 5 0;
#X connect 26 0 2 0;
#X connect 28 0 27 0;
#X connect 29 0 30 0;
#X connect 30 0 41 0;
#X connect 30 0 50 0;
#X connect 30 1 49 0;
#X connect 31 0 33 0;
#X connect 32 0 48 0;
#X connect 33 0 48 1;
#X connect 34 0 31 0;
#X connect 35 0 34 0;
#X connect 37 0 58 0;
#X connect 41 0 42 0;
#X connect 42 0 69 0;
#X connect 43 0 51 0;
#X connect 46 0 37 0;
#X connect 47 0 55 0;
#X connect 48 0 36 0;
#X connect 48 0 49 0;
#X connect 49 0 43 0;
#X connect 49 0 47 0;
#X connect 50 0 57 0;
#X connect 51 0 72 0;
#X connect 52 0 29 0;
#X connect 54 0 75 0;
#X connect 59 0 69 0;
#X connect 60 0 69 1;
#X connect 61 0 21 0;
#X connect 63 0 42 0;
#X connect 64 0 32 0;
#X connect 66 0 9 0;
#X connect 68 0 6 0;
#X connect 69 0 7 0;
#X connect 69 0 17 0;
#X connect 71 0 1 0;
#X connect 72 0 56 0;
#X connect 73 0 76 0;
#X connect 75 0 28 0;
#X connect 76 0 3 0;
#X connect 76 0 67 0;
#X restore 101 750 pd trigger_samples_for_velocity_of_76-99;
#X obj 424 784 bng 15 250 50 0 empty empty empty 17 7 0 10 -262144
-1 -1;
#X text 189 777 carga sample;
#X obj 170 776 bng 15 250 50 0 empty empty empty 17 7 0 10 -262144
-1 -1;
#X text 289 778 triggea sample;
#X text -22 651 cambio de sample;
#X text 119 728 cambio de sample;
#X obj 470 30 route 2;
#X obj 483 216 moses 100;
#X obj 483 274 moses 75;
#X msg 549 141 127;
#X msg 549 182 60;
#X msg 549 161 85;
#X obj 451 161 stripnote;
#X obj 489 70 bng 15 250 50 0 empty empty empty 17 7 0 10 -262144 -1
-1;
#X obj 668 478 bng 15 250 50 0 empty empty empty 17 7 0 10 -262144
-1 -1;
#N canvas 172 119 1440 851 trigger_samples_for_velocity_of_100-127
0;
#N canvas 0 22 450 300 (subpatch) 0;
#X array sampler.B4 86470 float 2;
#X coords 0 1 86470 -1 600 100 1 0 0;
#X restore 325 77 graph;
#X obj 329 44 hsl 600 15 0 1 0 0 empty empty empty -2 -8 0 10 -262144
-1 -1 0 1;
#X obj -89 40 bng 15 250 50 0 empty empty empty 17 7 0 10 -262144 -1
-1;
#X obj -89 125 soundfiler;
#X obj -88 65 openpanel;
#X floatatom -88 321 10 0 0 0 - - -;
#X floatatom -73 820 12 0 0 0 - - -;
#X obj -88 846 *~;
#X obj 76 245 samplerate~;
#X floatatom -88 271 15 0 0 0 - - -;
#X floatatom -89 152 12 0 0 0 - - -;
#X obj -88 595 *;
#X floatatom -73 572 10 0 0 0 - - -;
#X floatatom 78 273 10 0 0 0 - - -;
#X floatatom -88 397 10 0 0 0 - - -;
#X floatatom -88 619 10 0 0 0 - - -;
#X obj -13 744 nbx 5 14 -1e+037 1e+037 0 0 empty empty empty 0 -8 0
10 -262144 -1 -1 0 256;
#X obj -13 719 unsig~ 1;
#X obj -73 879 unsig~ 1;
#X msg -88 497 \$1 \$2;
#X obj -88 473 pack f f;
#X floatatom -43 446 10 0 0 0 - - -;
#X obj -88 521 line;
#X obj 76 224 loadbang;
#X obj -88 296 expr $f2 / $f1;
#X floatatom -73 902 12 0 0 0 - - -;
#X obj -89 16 inlet;
#X obj 329 927 outlet~;
#X obj 330 896 *~ 1;
#X obj 1103 223 switch~;
#X obj 1103 176 inlet;
#X obj 1066 202 tgl 15 0 empty empty empty 17 7 0 10 -262144 -1 -1
1 1;
#X obj 358 471 bng 15 250 50 0 empty empty empty 17 7 0 10 -262144
-1 -1;
#X obj 359 496 t b b;
#X obj 707 549 samplerate~;
#X floatatom 605 573 15 0 0 0 - - -;
#X floatatom 707 570 10 0 0 0 - - -;
#X obj 707 528 loadbang;
#X obj 706 502 bng 15 250 50 0 empty empty empty 17 7 0 10 -262144
-1 -1;
#X floatatom 622 629 10 0 0 0 - - -;
#X msg 360 636 0;
#X text 87 602 comment;
#X text 387 636 parar;
#X text 405 557 reproducir;
#X obj 361 560 bng 15 250 50 0 empty empty empty 17 7 0 10 -262144
-1 -1;
#X floatatom 2 582 5 0 0 0 - - -;
#X obj 1002 176 loadbang;
#X obj 550 675 bng 15 250 50 0 empty empty empty 17 7 0 10 -262144
-1 -1;
#X text 379 468 impluso de entrada;
#X text 796 606 cuenta para stop antes de repetir sample como loop
;
#X obj 360 604 loadbang;
#X msg 572 673 0;
#X obj 550 649 delay 6000;
#X msg 450 636 0;
#X obj 550 725 delay 10;
#X text 60 30 carga de sample;
#X obj 357 327 inlet;
#X obj 17 114 print;
#X obj -89 696 phasor~ 0;
#X msg 549 748 0;
#X obj -89 177 s \$0-cantidad-de-muestras3;
#X obj -88 206 r \$0-cantidad-de-muestras3;
#X obj -23 342 s \$0-frecuencia-de-lectura-sin-transposicion3;
#X obj -43 422 r \$0-frecuencia-de-lectura-interpolacion3;
#X obj 15 527 r \$0-frecuencia-de-lectura-sin-transposicion3;
#X obj 72 642 r pararsample3;
#X obj 168 643 r retrigger3;
#X obj -14 766 s \$0-posicion3;
#X obj -73 796 r \$0-cantidad-de-muestras3;
#X obj 548 780 s retrigger3;
#X obj 571 700 s pararsample3;
#X obj 360 673 s pararsample3;
#X obj 451 673 s retrigger3;
#X obj 606 482 r \$0-cantidad-de-muestras3;
#X obj 326 20 r \$0-posicion3;
#X obj 605 606 expr (($f1 / $f2) * 1000) - 0.1;
#X obj 583 541 bng 15 250 50 0 empty empty empty 17 7 0 10 -262144
-1 -1;
#X obj 96 200 bng 15 250 50 0 empty empty empty 17 7 0 10 -262144 -1
-1;
#X obj -19 66 loadbang;
#X obj -88 976 s~ \$0-phasor6;
#X obj 329 807 r~ \$0-phasor6;
#X msg -89 88 read -resize indio/3.wav sampler.B4;
#X obj 329 832 tabread4~ sampler.B4;
#X connect 2 0 4 0;
#X connect 3 0 10 0;
#X connect 4 0 81 0;
#X connect 5 0 14 0;
#X connect 5 0 12 0;
#X connect 5 0 62 0;
#X connect 6 0 7 1;
#X connect 7 0 18 0;
#X connect 7 0 79 0;
#X connect 8 0 13 0;
#X connect 9 0 24 0;
#X connect 10 0 60 0;
#X connect 11 0 15 0;
#X connect 12 0 11 1;
#X connect 13 0 24 1;
#X connect 14 0 20 0;
#X connect 15 0 58 0;
#X connect 16 0 67 0;
#X connect 17 0 16 0;
#X connect 18 0 25 0;
#X connect 19 0 22 0;
#X connect 20 0 19 0;
#X connect 21 0 20 1;
#X connect 22 0 11 0;
#X connect 23 0 8 0;
#X connect 24 0 5 0;
#X connect 26 0 2 0;
#X connect 28 0 27 0;
#X connect 30 0 29 0;
#X connect 31 0 29 0;
#X connect 32 0 33 0;
#X connect 33 0 44 0;
#X connect 33 0 53 0;
#X connect 33 1 52 0;
#X connect 34 0 36 0;
#X connect 35 0 75 0;
#X connect 36 0 75 1;
#X connect 37 0 34 0;
#X connect 38 0 37 0;
#X connect 40 0 71 0;
#X connect 44 0 45 0;
#X connect 45 0 58 0;
#X connect 46 0 31 0;
#X connect 47 0 54 0;
#X connect 50 0 40 0;
#X connect 51 0 70 0;
#X connect 52 0 47 0;
#X connect 52 0 51 0;
#X connect 53 0 72 0;
#X connect 54 0 59 0;
#X connect 56 0 32 0;
#X connect 58 0 7 0;
#X connect 58 0 17 0;
#X connect 59 0 69 0;
#X connect 61 0 9 0;
#X connect 63 0 21 0;
#X connect 64 0 45 0;
#X connect 65 0 58 0;
#X connect 66 0 58 1;
#X connect 68 0 6 0;
#X connect 73 0 35 0;
#X connect 74 0 1 0;
#X connect 75 0 39 0;
#X connect 75 0 52 0;
#X connect 76 0 35 0;
#X connect 77 0 23 0;
#X connect 78 0 81 0;
#X connect 80 0 82 0;
#X connect 81 0 3 0;
#X connect 81 0 57 0;
#X connect 82 0 28 0;
#X restore 679 734 pd trigger_samples_for_velocity_of_100-127;
#X obj 436 490 bng 15 250 50 0 empty empty empty 17 7 0 10 -262144
-1 -1;
#X text 555 490 triggea sample;
#X obj 836 589 bng 15 250 50 0 empty empty empty 17 7 0 10 -262144
-1 -1;
#X obj 603 597 bng 15 250 50 0 empty empty empty 17 7 0 10 -262144
-1 -1;
#X text 726 613 triggea sample;
#N canvas 0 22 1440 799 trigger_samples_for_velocity_of_76-99 0;
#N canvas 0 22 450 300 (subpatch) 0;
#X array sampler.B3 77217 float 2;
#X coords 0 1 77217 -1 600 100 1 0 0;
#X restore 316 68 graph;
#X obj 319 34 hsl 600 15 0 1 0 0 empty empty empty -2 -8 0 10 -262144
-1 -1 0 1;
#X obj -99 30 bng 15 250 50 0 empty empty empty 17 7 0 10 -262144 -1
-1;
#X obj -99 115 soundfiler;
#X obj -98 55 openpanel;
#X floatatom -98 311 10 0 0 0 - - -;
#X floatatom -83 810 12 0 0 0 - - -;
#X obj -98 836 *~;
#X obj -17 240 samplerate~;
#X floatatom -98 261 15 0 0 0 - - -;
#X floatatom -99 142 12 0 0 0 - - -;
#X obj -98 585 *;
#X floatatom -83 562 10 0 0 0 - - -;
#X floatatom -17 261 10 0 0 0 - - -;
#X floatatom -98 387 10 0 0 0 - - -;
#X floatatom -98 609 10 0 0 0 - - -;
#X obj -23 734 nbx 5 14 -1e+037 1e+037 0 0 empty empty empty 0 -8 0
10 -262144 -1 -1 0 256;
#X obj -23 709 unsig~ 1;
#X obj -83 869 unsig~ 1;
#X msg -98 487 \$1 \$2;
#X obj -98 463 pack f f;
#X floatatom -53 436 10 0 0 0 - - -;
#X obj -98 511 line;
#X obj -17 219 loadbang;
#X obj -98 286 expr $f2 / $f1;
#X floatatom -83 892 12 0 0 0 - - -;
#X obj -99 6 inlet;
#X obj 319 917 outlet~;
#X obj 320 886 *~ 1;
#X obj 348 461 bng 15 250 50 0 empty empty empty 17 7 0 10 -262144
-1 -1;
#X obj 349 486 t b b;
#X obj 697 539 samplerate~;
#X floatatom 595 563 15 0 0 0 - - -;
#X floatatom 697 560 10 0 0 0 - - -;
#X obj 697 518 loadbang;
#X obj 696 492 bng 15 250 50 0 empty empty empty 17 7 0 10 -262144
-1 -1;
#X floatatom 612 619 10 0 0 0 - - -;
#X msg 350 626 0;
#X text 77 592 comment;
#X text 377 626 parar;
#X text 395 547 reproducir;
#X obj 351 550 bng 15 250 50 0 empty empty empty 17 7 0 10 -262144
-1 -1;
#X floatatom -8 572 5 0 0 0 - - -;
#X obj 540 665 bng 15 250 50 0 empty empty empty 17 7 0 10 -262144
-1 -1;
#X text 369 458 impluso de entrada;
#X text 786 596 cuenta para stop antes de repetir sample como loop
;
#X obj 350 594 loadbang;
#X msg 562 663 0;
#X obj 595 596 expr (($f1 / $f2) * 1000) - 0.1;
#X obj 540 639 delay 6000;
#X msg 440 626 0;
#X obj 540 715 delay 10;
#X text 2 46 carga de sample;
#X obj 347 317 inlet;
#X obj 561 690 s pararsample2;
#X obj 538 770 s retrigger2;
#X obj 441 663 s retrigger2;
#X obj 350 663 s pararsample2;
#X obj 62 632 r pararsample2;
#X obj 158 633 r retrigger2;
#X obj -53 412 r \$0-frecuencia-de-lectura-interpolacion2;
#X obj -33 332 s \$0-frecuencia-de-lectura-sin-transposicion2;
#X obj 5 516 r \$0-frecuencia-de-lectura-sin-transposicion2;
#X obj 596 472 r \$0-cantidad-de-muestras2;
#X obj -99 167 s \$0-cantidad-de-muestras2;
#X obj -98 196 r \$0-cantidad-de-muestras2;
#X obj 7 104 print;
#X obj -83 786 r \$0-cantidad-de-muestras2;
#X obj -99 686 phasor~ 0;
#X obj -23 756 s \$0-posicion2;
#X obj 316 10 r \$0-posicion2;
#X msg 539 738 0;
#X obj -32 57 loadbang;
#X obj -98 966 s~ \$0-phasor5;
#X obj 319 797 r~ \$0-phasor5;
#X obj 319 822 tabread4~ sampler.B3;
#X msg -99 78 read -resize indio/2.wav sampler.B3;
#X connect 2 0 4 0;
#X connect 3 0 10 0;
#X connect 4 0 76 0;
#X connect 5 0 14 0;
#X connect 5 0 12 0;
#X connect 5 0 61 0;
#X connect 6 0 7 1;
#X connect 7 0 18 0;
#X connect 7 0 73 0;
#X connect 8 0 13 0;
#X connect 9 0 24 0;
#X connect 10 0 64 0;
#X connect 11 0 15 0;
#X connect 12 0 11 1;
#X connect 13 0 24 1;
#X connect 14 0 20 0;
#X connect 15 0 68 0;
#X connect 16 0 69 0;
#X connect 17 0 16 0;
#X connect 18 0 25 0;
#X connect 19 0 22 0;
#X connect 20 0 19 0;
#X connect 21 0 20 1;
#X connect 22 0 11 0;
#X connect 23 0 8 0;
#X connect 24 0 5 0;
#X connect 26 0 2 0;
#X connect 28 0 27 0;
#X connect 29 0 30 0;
#X connect 30 0 41 0;
#X connect 30 0 50 0;
#X connect 30 1 49 0;
#X connect 31 0 33 0;
#X connect 32 0 48 0;
#X connect 33 0 48 1;
#X connect 34 0 31 0;
#X connect 35 0 34 0;
#X connect 37 0 57 0;
#X connect 41 0 42 0;
#X connect 42 0 68 0;
#X connect 43 0 51 0;
#X connect 46 0 37 0;
#X connect 47 0 54 0;
#X connect 48 0 36 0;
#X connect 48 0 49 0;
#X connect 49 0 43 0;
#X connect 49 0 47 0;
#X connect 50 0 56 0;
#X connect 51 0 71 0;
#X connect 53 0 29 0;
#X connect 58 0 68 0;
#X connect 59 0 68 1;
#X connect 60 0 21 0;
#X connect 62 0 42 0;
#X connect 63 0 32 0;
#X connect 65 0 9 0;
#X connect 67 0 6 0;
#X connect 68 0 7 0;
#X connect 68 0 17 0;
#X connect 70 0 1 0;
#X connect 71 0 55 0;
#X connect 72 0 76 0;
#X connect 74 0 75 0;
#X connect 75 0 28 0;
#X connect 76 0 3 0;
#X connect 76 0 66 0;
#X restore 608 634 pd trigger_samples_for_velocity_of_76-99;
#X obj 795 685 bng 15 250 50 0 empty empty empty 17 7 0 10 -262144
-1 -1;
#X text 692 701 carga sample;
#X obj 673 700 bng 15 250 50 0 empty empty empty 17 7 0 10 -262144
-1 -1;
#X text 792 702 triggea sample;
#X text 455 489 cambio de sample;
#X text 626 612 cambio de sample;
#X obj 957 200 moses 100;
#X obj 957 258 moses 75;
#X msg 1023 125 127;
#X msg 1023 166 60;
#X msg 1023 145 85;
#X obj 925 145 stripnote;
#X obj 963 54 bng 15 250 50 0 empty empty empty 17 7 0 10 -262144 -1
-1;
#X obj 1144 407 bng 15 250 50 0 empty empty empty 17 7 0 10 -262144
-1 -1;
#N canvas 352 73 1440 804 trigger_samples_for_velocity_of_100-127 0
;
#N canvas 0 22 450 300 (subpatch) 0;
#X array sampler.C4 31238 float 2;
#X coords 0 1 31238 -1 600 100 1 0 0;
#X restore 325 77 graph;
#X obj 329 44 hsl 600 15 0 1 0 0 empty empty empty -2 -8 0 10 -262144
-1 -1 0 1;
#X obj -89 40 bng 15 250 50 0 empty empty empty 17 7 0 10 -262144 -1
-1;
#X obj -89 125 soundfiler;
#X obj -88 65 openpanel;
#X floatatom -88 321 10 0 0 0 - - -;
#X floatatom -73 820 12 0 0 0 - - -;
#X obj -88 846 *~;
#X obj 76 245 samplerate~;
#X floatatom -88 271 15 0 0 0 - - -;
#X floatatom -89 152 12 0 0 0 - - -;
#X obj -88 595 *;
#X floatatom -73 572 10 0 0 0 - - -;
#X floatatom 78 273 10 0 0 0 - - -;
#X floatatom -88 397 10 0 0 0 - - -;
#X floatatom -88 619 10 0 0 0 - - -;
#X obj -13 744 nbx 5 14 -1e+037 1e+037 0 0 empty empty empty 0 -8 0
10 -262144 -1 -1 0 256;
#X obj -13 719 unsig~ 1;
#X obj -73 879 unsig~ 1;
#X msg -88 497 \$1 \$2;
#X obj -88 473 pack f f;
#X floatatom -43 446 10 0 0 0 - - -;
#X obj -88 521 line;
#X obj 76 224 loadbang;
#X obj -88 296 expr $f2 / $f1;
#X floatatom -73 902 12 0 0 0 - - -;
#X obj -89 16 inlet;
#X obj 329 927 outlet~;
#X obj 330 896 *~ 1;
#X obj 358 471 bng 15 250 50 0 empty empty empty 17 7 0 10 -262144
-1 -1;
#X obj 359 496 t b b;
#X obj 707 549 samplerate~;
#X floatatom 605 573 15 0 0 0 - - -;
#X floatatom 707 570 10 0 0 0 - - -;
#X obj 707 528 loadbang;
#X obj 706 502 bng 15 250 50 0 empty empty empty 17 7 0 10 -262144
-1 -1;
#X floatatom 622 629 10 0 0 0 - - -;
#X msg 360 636 0;
#X text 87 602 comment;
#X text 387 636 parar;
#X text 405 557 reproducir;
#X obj 361 560 bng 15 250 50 0 empty empty empty 17 7 0 10 -262144
-1 -1;
#X floatatom 2 582 5 0 0 0 - - -;
#X obj 550 675 bng 15 250 50 0 empty empty empty 17 7 0 10 -262144
-1 -1;
#X text 379 468 impluso de entrada;
#X text 796 606 cuenta para stop antes de repetir sample como loop
;
#X obj 360 604 loadbang;
#X msg 572 673 0;
#X obj 550 649 delay 6000;
#X msg 450 636 0;
#X obj 550 725 delay 10;
#X text 60 30 carga de sample;
#X obj 357 327 inlet;
#X obj 17 114 print;
#X obj -89 696 phasor~ 0;
#X msg 549 748 0;
#X obj -89 177 s \$0-cantidad-de-muestras3;
#X obj -88 206 r \$0-cantidad-de-muestras3;
#X obj -23 342 s \$0-frecuencia-de-lectura-sin-transposicion3;
#X obj -43 422 r \$0-frecuencia-de-lectura-interpolacion3;
#X obj 15 527 r \$0-frecuencia-de-lectura-sin-transposicion3;
#X obj 72 642 r pararsample3;
#X obj 168 643 r retrigger3;
#X obj -14 766 s \$0-posicion3;
#X obj -73 796 r \$0-cantidad-de-muestras3;
#X obj 548 780 s retrigger3;
#X obj 571 700 s pararsample3;
#X obj 360 673 s pararsample3;
#X obj 451 673 s retrigger3;
#X obj 606 482 r \$0-cantidad-de-muestras3;
#X obj 326 20 r \$0-posicion3;
#X obj 605 606 expr (($f1 / $f2) * 1000) - 0.1;
#X obj 583 541 bng 15 250 50 0 empty empty empty 17 7 0 10 -262144
-1 -1;
#X obj 96 200 bng 15 250 50 0 empty empty empty 17 7 0 10 -262144 -1
-1;
#X obj -19 66 loadbang;
#X obj -88 976 s~ \$0-phasor9;
#X obj 329 807 r~ \$0-phasor9;
#X msg -89 88 read -resize malinalco/3.wav sampler.C4;
#X obj 329 832 tabread4~ sampler.C4;
#X connect 2 0 4 0;
#X connect 3 0 10 0;
#X connect 4 0 77 0;
#X connect 5 0 14 0;
#X connect 5 0 12 0;
#X connect 5 0 58 0;
#X connect 6 0 7 1;
#X connect 7 0 18 0;
#X connect 7 0 75 0;
#X connect 8 0 13 0;
#X connect 9 0 24 0;
#X connect 10 0 56 0;
#X connect 11 0 15 0;
#X connect 12 0 11 1;
#X connect 13 0 24 1;
#X connect 14 0 20 0;
#X connect 15 0 54 0;
#X connect 16 0 63 0;
#X connect 17 0 16 0;
#X connect 18 0 25 0;
#X connect 19 0 22 0;
#X connect 20 0 19 0;
#X connect 21 0 20 1;
#X connect 22 0 11 0;
#X connect 23 0 8 0;
#X connect 24 0 5 0;
#X connect 26 0 2 0;
#X connect 28 0 27 0;
#X connect 29 0 30 0;
#X connect 30 0 41 0;
#X connect 30 0 49 0;
#X connect 30 1 48 0;
#X connect 31 0 33 0;
#X connect 32 0 71 0;
#X connect 33 0 71 1;
#X connect 34 0 31 0;
#X connect 35 0 34 0;
#X connect 37 0 67 0;
#X connect 41 0 42 0;
#X connect 42 0 54 0;
#X connect 43 0 50 0;
#X connect 46 0 37 0;
#X connect 47 0 66 0;
#X connect 48 0 43 0;
#X connect 48 0 47 0;
#X connect 49 0 68 0;
#X connect 50 0 55 0;
#X connect 52 0 29 0;
#X connect 54 0 7 0;
#X connect 54 0 17 0;
#X connect 55 0 65 0;
#X connect 57 0 9 0;
#X connect 59 0 21 0;
#X connect 60 0 42 0;
#X connect 61 0 54 0;
#X connect 62 0 54 1;
#X connect 64 0 6 0;
#X connect 69 0 32 0;
#X connect 70 0 1 0;
#X connect 71 0 36 0;
#X connect 71 0 48 0;
#X connect 72 0 32 0;
#X connect 73 0 23 0;
#X connect 74 0 77 0;
#X connect 76 0 78 0;
#X connect 77 0 3 0;
#X connect 77 0 53 0;
#X connect 78 0 28 0;
#X restore 1153 699 pd trigger_samples_for_velocity_of_100-127;
#X obj 921 411 bng 15 250 50 0 empty empty empty 17 7 0 10 -262144
-1 -1;
#X text 1040 411 triggea sample;
#X obj 1316 565 bng 15 250 50 0 empty empty empty 17 7 0 10 -262144
-1 -1;
#X obj 1077 562 bng 15 250 50 0 empty empty empty 17 7 0 10 -262144
-1 -1;
#X text 1200 578 triggea sample;
#N canvas 0 196 1920 1026 trigger_samples_for_velocity_of_76-99 0;
#N canvas 0 22 450 300 (subpatch) 0;
#X array sampler.C3 53315 float 2;
#X coords 0 1 53315 -1 600 100 1 0 0;
#X restore 316 68 graph;
#X obj 319 34 hsl 600 15 0 1 0 0 empty empty empty -2 -8 0 10 -262144
-1 -1 0 1;
#X obj -99 30 bng 15 250 50 0 empty empty empty 17 7 0 10 -262144 -1
-1;
#X obj -99 115 soundfiler;
#X obj -98 55 openpanel;
#X floatatom -98 311 10 0 0 0 - - -;
#X floatatom -83 810 12 0 0 0 - - -;
#X obj -98 836 *~;
#X obj -17 240 samplerate~;
#X floatatom -98 261 15 0 0 0 - - -;
#X floatatom -99 142 12 0 0 0 - - -;
#X obj -98 585 *;
#X floatatom -83 562 10 0 0 0 - - -;
#X floatatom -17 261 10 0 0 0 - - -;
#X floatatom -98 387 10 0 0 0 - - -;
#X floatatom -98 609 10 0 0 0 - - -;
#X obj -23 734 nbx 5 14 -1e+037 1e+037 0 0 empty empty empty 0 -8 0
10 -262144 -1 -1 0 256;
#X obj -23 709 unsig~ 1;
#X obj -83 869 unsig~ 1;
#X msg -98 487 \$1 \$2;
#X obj -98 463 pack f f;
#X floatatom -53 436 10 0 0 0 - - -;
#X obj -98 511 line;
#X obj -17 219 loadbang;
#X obj -98 286 expr $f2 / $f1;
#X floatatom -83 892 12 0 0 0 - - -;
#X obj -99 6 inlet;
#X obj 319 917 outlet~;
#X obj 320 886 *~ 1;
#X obj 348 461 bng 15 250 50 0 empty empty empty 17 7 0 10 -262144
-1 -1;
#X obj 349 486 t b b;
#X obj 697 539 samplerate~;
#X floatatom 595 563 15 0 0 0 - - -;
#X floatatom 697 560 10 0 0 0 - - -;
#X obj 697 518 loadbang;
#X obj 696 492 bng 15 250 50 0 empty empty empty 17 7 0 10 -262144
-1 -1;
#X floatatom 612 619 10 0 0 0 - - -;
#X msg 350 626 0;
#X text 77 592 comment;
#X text 377 626 parar;
#X text 395 547 reproducir;
#X obj 351 550 bng 15 250 50 0 empty empty empty 17 7 0 10 -262144
-1 -1;
#X floatatom -8 572 5 0 0 0 - - -;
#X obj 540 665 bng 15 250 50 0 empty empty empty 17 7 0 10 -262144
-1 -1;
#X text 369 458 impluso de entrada;
#X text 786 596 cuenta para stop antes de repetir sample como loop
;
#X obj 350 594 loadbang;
#X msg 562 663 0;
#X obj 595 596 expr (($f1 / $f2) * 1000) - 0.1;
#X obj 540 639 delay 6000;
#X msg 440 626 0;
#X obj 540 715 delay 10;
#X text 2 46 carga de sample;
#X obj 347 317 inlet;
#X obj 561 690 s pararsample2;
#X obj 538 770 s retrigger2;
#X obj 441 663 s retrigger2;
#X obj 350 663 s pararsample2;
#X obj 62 632 r pararsample2;
#X obj 158 633 r retrigger2;
#X obj -53 412 r \$0-frecuencia-de-lectura-interpolacion2;
#X obj -33 332 s \$0-frecuencia-de-lectura-sin-transposicion2;
#X obj 5 516 r \$0-frecuencia-de-lectura-sin-transposicion2;
#X obj 596 472 r \$0-cantidad-de-muestras2;
#X obj -99 167 s \$0-cantidad-de-muestras2;
#X obj -98 196 r \$0-cantidad-de-muestras2;
#X obj 7 104 print;
#X obj -83 786 r \$0-cantidad-de-muestras2;
#X obj -99 686 phasor~ 0;
#X obj -23 756 s \$0-posicion2;
#X obj 316 10 r \$0-posicion2;
#X msg 539 738 0;
#X obj -32 57 loadbang;
#X obj -98 966 s~ \$0-phasor8;
#X obj 319 797 r~ \$0-phasor8;
#X msg -99 78 read -resize malinalco/2.wav sampler.C3;
#X obj 319 822 tabread4~ sampler.C3;
#X connect 2 0 4 0;
#X connect 3 0 10 0;
#X connect 4 0 75 0;
#X connect 5 0 14 0;
#X connect 5 0 12 0;
#X connect 5 0 61 0;
#X connect 6 0 7 1;
#X connect 7 0 18 0;
#X connect 7 0 73 0;
#X connect 8 0 13 0;
#X connect 9 0 24 0;
#X connect 10 0 64 0;
#X connect 11 0 15 0;
#X connect 12 0 11 1;
#X connect 13 0 24 1;
#X connect 14 0 20 0;
#X connect 15 0 68 0;
#X connect 16 0 69 0;
#X connect 17 0 16 0;
#X connect 18 0 25 0;
#X connect 19 0 22 0;
#X connect 20 0 19 0;
#X connect 21 0 20 1;
#X connect 22 0 11 0;
#X connect 23 0 8 0;
#X connect 24 0 5 0;
#X connect 26 0 2 0;
#X connect 28 0 27 0;
#X connect 29 0 30 0;
#X connect 30 0 41 0;
#X connect 30 0 50 0;
#X connect 30 1 49 0;
#X connect 31 0 33 0;
#X connect 32 0 48 0;
#X connect 33 0 48 1;
#X connect 34 0 31 0;
#X connect 35 0 34 0;
#X connect 37 0 57 0;
#X connect 41 0 42 0;
#X connect 42 0 68 0;
#X connect 43 0 51 0;
#X connect 46 0 37 0;
#X connect 47 0 54 0;
#X connect 48 0 36 0;
#X connect 48 0 49 0;
#X connect 49 0 43 0;
#X connect 49 0 47 0;
#X connect 50 0 56 0;
#X connect 51 0 71 0;
#X connect 53 0 29 0;
#X connect 58 0 68 0;
#X connect 59 0 68 1;
#X connect 60 0 21 0;
#X connect 62 0 42 0;
#X connect 63 0 32 0;
#X connect 65 0 9 0;
#X connect 67 0 6 0;
#X connect 68 0 7 0;
#X connect 68 0 17 0;
#X connect 70 0 1 0;
#X connect 71 0 55 0;
#X connect 72 0 75 0;
#X connect 74 0 76 0;
#X connect 75 0 3 0;
#X connect 75 0 66 0;
#X connect 76 0 28 0;
#X restore 1082 599 pd trigger_samples_for_velocity_of_76-99;
#X obj 1393 670 bng 15 250 50 0 empty empty empty 17 7 0 10 -262144
-1 -1;
#X text 1166 666 carga sample;
#X obj 1147 665 bng 15 250 50 0 empty empty empty 17 7 0 10 -262144
-1 -1;
#X text 1266 667 triggea sample;
#X text 940 410 cambio de sample;
#X text 1100 577 cambio de sample;
#X obj 941 8 route 3;
#X msg 458 98 15;
#X msg 932 82 16;
#X obj 1835 534 bng 15 250 50 0 empty empty empty 17 7 0 10 -262144
-1 -1;
#X obj -11 1102 dac~;
#X obj -11 1072 *~ 0.05;
#X obj 430 940 loadbang;
#X obj 128 952 hsl 128 20 0 1 0 1 empty empty pan_position 6 10 1 11
-262131 -1 -1 6500 0;
#X obj -12 983 linear_pan~;
#X obj 430 1021 tgl 25 0 empty empty DSP 3 12 1 9 -24198 -1 -1 1 1
;
#X msg 430 1055 \; pd dsp \$1;
#X obj 47 1073 *~ 0.05;
#X obj 125 900 loadbang;
#X msg 125 924 0.511811;
#X msg 69 925 set \$1;
#X text 195 907 modulo de paneo de cada tampor;
#X text 52 1099 nuevo modulo dac para poder automatizar encendido;
#X text 445 1092 comment;
#X msg 37 37 1;
#X msg 430 969 1;
#X obj 430 993 delay 3000;
#X text 505 962 encendido del DSP una vez pasados 3s. de abierto el
patch para prevenir sonidos durante carga de samples;
#X msg 360 997 0;
#X obj 290 1021 line 0 100;
#X msg 291 994 0.5 2000;
#X obj 292 970 bng 15 250 50 0 empty empty empty 17 7 0 10 -262144
-1 -1;
#X obj -37 431 moses 40;
#N canvas 683 57 839 668 trigger_samples_for_velocity_of_0-40 0;
#N canvas 0 22 450 300 (subpatch) 0;
#X array sampler.A 25660 float 2;
#X coords 0 1 25660 -1 600 100 1 0 0;
#X restore 316 68 graph;
#X obj 319 34 hsl 600 15 0 1 0 0 empty empty empty -2 -8 0 10 -262144
-1 -1 0 1;
#X obj 316 10 r \$0-posicion;
#X obj -99 30 bng 15 250 50 0 empty empty empty 17 7 0 10 -262144 -1
-1;
#X obj -99 115 soundfiler;
#X obj -99 48 openpanel;
#X floatatom -98 311 10 0 0 0 - - -;
#X floatatom -83 810 12 0 0 0 - - -;
#X obj -98 836 *~;
#X obj -17 240 samplerate~;
#X floatatom -98 261 15 0 0 0 - - -;
#X floatatom -99 143 12 0 0 0 - - -;
#X obj -99 686 phasor~;
#X obj -99 167 s \$0-cantidad-de-muestras;
#X obj -98 196 r \$0-cantidad-de-muestras;
#X obj -83 786 r \$0-cantidad-de-muestras;
#X obj -98 585 *;
#X floatatom -83 562 10 0 0 0 - - -;
#X floatatom -17 261 10 0 0 0 - - -;
#X floatatom -98 387 10 0 0 0 - - -;
#X floatatom -98 609 10 0 0 0 - - -;
#X obj -23 734 nbx 5 14 -1e+037 1e+037 0 0 empty empty empty 0 -8 0
10 -262144 -1 -1 0 256;
#X obj -23 709 unsig~ 1;
#X obj -83 869 unsig~ 1;
#X msg -98 487 \$1 \$2;
#X obj -98 463 pack f f;
#X floatatom -53 436 10 0 0 0 - - -;
#X obj -53 412 r \$0-frecuencia-de-lectura-interpolacion;
#X obj -98 511 line;
#X obj -23 756 s \$0-posicion;
#X obj -59 633 r \$0-phasor-fase;
#X floatatom -59 657 10 0 0 0 - - -;
#X obj -17 219 loadbang;
#X obj -98 286 expr $f2 / $f1;
#X obj -33 332 s \$0-frecuencia-de-lectura-sin-transposicion;
#X obj 5 516 r \$0-frecuencia-de-lectura-sin-transposicion;
#X floatatom -83 892 12 0 0 0 - - -;
#X obj -99 6 inlet;
#X obj 319 917 outlet~;
#X obj 320 886 *~ 1;
#X obj -68 947 print;
#X obj 348 461 bng 15 250 50 0 empty empty empty 17 7 0 10 -262144
-1 -1;
#X obj 349 486 t b b;
#X obj 596 471 r \$0-cantidad-de-muestras;
#X obj 697 539 samplerate~;
#X floatatom 595 563 15 0 0 0 - - -;
#X floatatom 697 560 10 0 0 0 - - -;
#X obj 697 518 loadbang;
#X obj 696 492 bng 15 250 50 0 empty empty empty 17 7 0 10 -262144
-1 -1;
#X floatatom 612 619 10 0 0 0 - - -;
#X msg 350 626 0;
#X text 77 592 comment;
#X text 377 626 parar;
#X text 395 547 reproducir;
#X obj 351 550 bng 15 250 50 0 empty empty empty 17 7 0 10 -262144
-1 -1;
#X floatatom -8 572 5 0 0 0 - - -;
#X obj 540 665 bng 15 250 50 0 empty empty empty 17 7 0 10 -262144
-1 -1;
#X text 369 458 impluso de entrada;
#X text 786 596 cuenta para stop antes de repetir sample como loop
;
#X obj 350 594 loadbang;
#X msg 562 663 0;
#X obj 62 632 r pararsample;
#X obj 149 633 r retrigger;
#X obj 561 690 s pararsample;
#X obj 350 664 s pararsample;
#X obj 595 596 expr (($f1 / $f2) * 1000) - 0.1;
#X obj -24 117 bng 15 250 50 0 empty empty empty 17 7 0 10 -262144
-1 -1;
#X obj 540 639 delay 6000;
#X obj 441 663 s retrigger;
#X msg 440 626 0;
#X obj 540 715 delay 10;
#X obj 540 776 s retrigger;
#X text -7 37 carga de sample;
#X obj 347 317 inlet;
#X msg 549 748 0;
#X obj -38 58 loadbang;
#X msg -99 83 read -resize aguila/0.wav sampler.A;
#X obj 319 822 tabread4~ sampler.A;
#X obj -98 965 s~ \$0-phasor10;
#X obj 319 797 r~ \$0-phasor10;
#X connect 2 0 1 0;
#X connect 3 0 5 0;
#X connect 4 0 11 0;
#X connect 5 0 76 0;
#X connect 6 0 19 0;
#X connect 6 0 17 0;
#X connect 6 0 34 0;
#X connect 7 0 8 1;
#X connect 8 0 23 0;
#X connect 8 0 78 0;
#X connect 9 0 18 0;
#X connect 10 0 33 0;
#X connect 11 0 13 0;
#X connect 12 0 8 0;
#X connect 12 0 22 0;
#X connect 14 0 10 0;
#X connect 15 0 7 0;
#X connect 16 0 20 0;
#X connect 17 0 16 1;
#X connect 18 0 33 1;
#X connect 19 0 25 0;
#X connect 20 0 12 0;
#X connect 21 0 29 0;
#X connect 22 0 21 0;
#X connect 23 0 36 0;
#X connect 24 0 28 0;
#X connect 25 0 24 0;
#X connect 26 0 25 1;
#X connect 27 0 26 0;
#X connect 28 0 16 0;
#X connect 30 0 31 0;
#X connect 31 0 12 1;
#X connect 32 0 9 0;
#X connect 33 0 6 0;
#X connect 35 0 55 0;
#X connect 37 0 3 0;
#X connect 39 0 38 0;
#X connect 41 0 42 0;
#X connect 42 0 54 0;
#X connect 42 0 69 0;
#X connect 42 1 67 0;
#X connect 43 0 45 0;
#X connect 44 0 46 0;
#X connect 45 0 65 0;
#X connect 46 0 65 1;
#X connect 47 0 44 0;
#X connect 48 0 47 0;
#X connect 50 0 64 0;
#X connect 54 0 55 0;
#X connect 55 0 12 0;
#X connect 56 0 70 0;
#X connect 59 0 50 0;
#X connect 60 0 63 0;
#X connect 61 0 12 0;
#X connect 62 0 12 1;
#X connect 65 0 49 0;
#X connect 65 0 67 0;
#X connect 66 0 11 0;
#X connect 67 0 56 0;
#X connect 67 0 60 0;
#X connect 69 0 68 0;
#X connect 70 0 74 0;
#X connect 73 0 41 0;
#X connect 74 0 71 0;
#X connect 75 0 76 0;
#X connect 76 0 4 0;
#X connect 77 0 39 0;
#X connect 79 0 77 0;
#X restore -74 622 pd trigger_samples_for_velocity_of_0-40;
#X obj 156 590 bng 15 250 50 0 empty empty empty 17 7 0 10 -262144
-1 -1;
#X obj -72 567 bng 15 250 50 0 empty empty empty 17 7 0 10 -262144
-1 -1;
#X obj 490 310 moses 40;
#N canvas 907 101 839 668 trigger_samples_for_velocity_of_0-40 0;
#N canvas 0 22 450 300 (subpatch) 0;
#X array sampler.B1 64143 float 2;
#X coords 0 1 64143 -1 600 100 1 0 0;
#X restore 316 68 graph;
#X obj 319 34 hsl 600 15 0 1 0 0 empty empty empty -2 -8 0 10 -262144
-1 -1 0 1;
#X obj 316 10 r \$0-posicion;
#X obj -95 26 bng 15 250 50 0 empty empty empty 17 7 0 10 -262144 -1
-1;
#X obj -99 115 soundfiler;
#X obj -99 48 openpanel;
#X floatatom -98 311 10 0 0 0 - - -;
#X floatatom -83 810 12 0 0 0 - - -;
#X obj -98 836 *~;
#X obj -17 240 samplerate~;
#X floatatom -98 261 15 0 0 0 - - -;
#X floatatom -99 142 12 0 0 0 - - -;
#X obj -99 686 phasor~;
#X obj -99 167 s \$0-cantidad-de-muestras;
#X obj -98 196 r \$0-cantidad-de-muestras;
#X obj -83 786 r \$0-cantidad-de-muestras;
#X obj -98 585 *;
#X floatatom -83 562 10 0 0 0 - - -;
#X floatatom -17 261 10 0 0 0 - - -;
#X floatatom -98 387 10 0 0 0 - - -;
#X floatatom -98 609 10 0 0 0 - - -;
#X obj -23 734 nbx 5 14 -1e+037 1e+037 0 0 empty empty empty 0 -8 0
10 -262144 -1 -1 0 256;
#X obj -23 709 unsig~ 1;
#X obj -83 869 unsig~ 1;
#X msg -98 487 \$1 \$2;
#X obj -98 463 pack f f;
#X floatatom -53 436 10 0 0 0 - - -;
#X obj -53 412 r \$0-frecuencia-de-lectura-interpolacion;
#X obj -98 511 line;
#X obj -23 756 s \$0-posicion;
#X obj -59 633 r \$0-phasor-fase;
#X floatatom -59 657 10 0 0 0 - - -;
#X obj -17 219 loadbang;
#X obj -98 286 expr $f2 / $f1;
#X obj -33 332 s \$0-frecuencia-de-lectura-sin-transposicion;
#X obj 5 516 r \$0-frecuencia-de-lectura-sin-transposicion;
#X floatatom -83 892 12 0 0 0 - - -;
#X obj -99 6 inlet;
#X obj 319 917 outlet~;
#X obj 320 886 *~ 1;
#X obj -68 947 print;
#X obj 348 461 bng 15 250 50 0 empty empty empty 17 7 0 10 -262144
-1 -1;
#X obj 349 486 t b b;
#X obj 596 471 r \$0-cantidad-de-muestras;
#X obj 697 539 samplerate~;
#X floatatom 595 563 15 0 0 0 - - -;
#X floatatom 697 560 10 0 0 0 - - -;
#X obj 697 518 loadbang;
#X obj 696 492 bng 15 250 50 0 empty empty empty 17 7 0 10 -262144
-1 -1;
#X floatatom 612 619 10 0 0 0 - - -;
#X msg 350 626 0;
#X text 77 592 comment;
#X text 377 626 parar;
#X text 395 547 reproducir;
#X obj 351 550 bng 15 250 50 0 empty empty empty 17 7 0 10 -262144
-1 -1;
#X floatatom -8 572 5 0 0 0 - - -;
#X obj 540 665 bng 15 250 50 0 empty empty empty 17 7 0 10 -262144
-1 -1;
#X text 369 458 impluso de entrada;
#X text 786 596 cuenta para stop antes de repetir sample como loop
;
#X obj 350 594 loadbang;
#X msg 562 663 0;
#X obj 62 632 r pararsample;
#X obj 149 633 r retrigger;
#X obj 561 690 s pararsample;
#X obj 350 664 s pararsample;
#X obj 595 596 expr (($f1 / $f2) * 1000) - 0.1;
#X obj -24 117 bng 15 250 50 0 empty empty empty 17 7 0 10 -262144
-1 -1;
#X obj 540 639 delay 6000;
#X obj 441 663 s retrigger;
#X msg 440 626 0;
#X obj 540 715 delay 10;
#X obj 540 776 s retrigger;
#X text -7 37 carga de sample;
#X obj 347 317 inlet;
#X msg 549 748 0;
#X obj -38 58 loadbang;
#X obj 319 822 tabread4~ sampler.B1;
#X msg -99 83 read -resize indio/0.wav sampler.B1;
#X obj -98 967 s~ \$0-phasor11;
#X obj 319 797 r~ \$0-phasor11;
#X connect 2 0 1 0;
#X connect 3 0 5 0;
#X connect 4 0 11 0;
#X connect 5 0 77 0;
#X connect 6 0 19 0;
#X connect 6 0 17 0;
#X connect 6 0 34 0;
#X connect 7 0 8 1;
#X connect 8 0 23 0;
#X connect 8 0 78 0;
#X connect 9 0 18 0;
#X connect 10 0 33 0;
#X connect 11 0 13 0;
#X connect 12 0 8 0;
#X connect 12 0 22 0;
#X connect 14 0 10 0;
#X connect 15 0 7 0;
#X connect 16 0 20 0;
#X connect 17 0 16 1;
#X connect 18 0 33 1;
#X connect 19 0 25 0;
#X connect 20 0 12 0;
#X connect 21 0 29 0;
#X connect 22 0 21 0;
#X connect 23 0 36 0;
#X connect 24 0 28 0;
#X connect 25 0 24 0;
#X connect 26 0 25 1;
#X connect 27 0 26 0;
#X connect 28 0 16 0;
#X connect 30 0 31 0;
#X connect 31 0 12 1;
#X connect 32 0 9 0;
#X connect 33 0 6 0;
#X connect 35 0 55 0;
#X connect 37 0 3 0;
#X connect 39 0 38 0;
#X connect 41 0 42 0;
#X connect 42 0 54 0;
#X connect 42 0 69 0;
#X connect 42 1 67 0;
#X connect 43 0 45 0;
#X connect 44 0 46 0;
#X connect 45 0 65 0;
#X connect 46 0 65 1;
#X connect 47 0 44 0;
#X connect 48 0 47 0;
#X connect 50 0 64 0;
#X connect 54 0 55 0;
#X connect 55 0 12 0;
#X connect 56 0 70 0;
#X connect 59 0 50 0;
#X connect 60 0 63 0;
#X connect 61 0 12 0;
#X connect 62 0 12 1;
#X connect 65 0 49 0;
#X connect 65 0 67 0;
#X connect 66 0 11 0;
#X connect 67 0 56 0;
#X connect 67 0 60 0;
#X connect 69 0 68 0;
#X connect 70 0 74 0;
#X connect 73 0 41 0;
#X connect 74 0 71 0;
#X connect 75 0 77 0;
#X connect 76 0 39 0;
#X connect 77 0 4 0;
#X connect 79 0 76 0;
#X restore 437 511 pd trigger_samples_for_velocity_of_0-40;
#N canvas 907 101 839 668 trigger_samples_for_velocity_of_41-75 0;
#N canvas 0 22 450 300 (subpatch) 0;
#X array sampler.B2 64143 float 2;
#X coords 0 1 64143 -1 600 100 1 0 0;
#X restore 316 68 graph;
#X obj 319 34 hsl 600 15 0 1 0 0 empty empty empty -2 -8 0 10 -262144
-1 -1 0 1;
#X obj 316 10 r \$0-posicion;
#X obj -95 26 bng 15 250 50 0 empty empty empty 17 7 0 10 -262144 -1
-1;
#X obj -99 115 soundfiler;
#X obj -99 48 openpanel;
#X floatatom -98 311 10 0 0 0 - - -;
#X floatatom -83 810 12 0 0 0 - - -;
#X obj -98 836 *~;
#X obj -17 240 samplerate~;
#X floatatom -98 261 15 0 0 0 - - -;
#X floatatom -99 142 12 0 0 0 - - -;
#X obj -99 686 phasor~;
#X obj -99 167 s \$0-cantidad-de-muestras;
#X obj -98 196 r \$0-cantidad-de-muestras;
#X obj -83 786 r \$0-cantidad-de-muestras;
#X obj -98 585 *;
#X floatatom -83 562 10 0 0 0 - - -;
#X floatatom -17 261 10 0 0 0 - - -;
#X floatatom -98 387 10 0 0 0 - - -;
#X floatatom -98 609 10 0 0 0 - - -;
#X obj -23 734 nbx 5 14 -1e+037 1e+037 0 0 empty empty empty 0 -8 0
10 -262144 -1 -1 0 256;
#X obj -23 709 unsig~ 1;
#X obj -83 869 unsig~ 1;
#X msg -98 487 \$1 \$2;
#X obj -98 463 pack f f;
#X floatatom -53 436 10 0 0 0 - - -;
#X obj -53 412 r \$0-frecuencia-de-lectura-interpolacion;
#X obj -98 511 line;
#X obj -23 756 s \$0-posicion;
#X obj -59 633 r \$0-phasor-fase;
#X floatatom -59 657 10 0 0 0 - - -;
#X obj -17 219 loadbang;
#X obj -98 286 expr $f2 / $f1;
#X obj -33 332 s \$0-frecuencia-de-lectura-sin-transposicion;
#X obj 5 516 r \$0-frecuencia-de-lectura-sin-transposicion;
#X floatatom -83 892 12 0 0 0 - - -;
#X obj -99 6 inlet;
#X obj 319 917 outlet~;
#X obj 320 886 *~ 1;
#X obj -68 947 print;
#X obj 348 461 bng 15 250 50 0 empty empty empty 17 7 0 10 -262144
-1 -1;
#X obj 349 486 t b b;
#X obj 596 471 r \$0-cantidad-de-muestras;
#X obj 697 539 samplerate~;
#X floatatom 595 563 15 0 0 0 - - -;
#X floatatom 697 560 10 0 0 0 - - -;
#X obj 697 518 loadbang;
#X obj 696 492 bng 15 250 50 0 empty empty empty 17 7 0 10 -262144
-1 -1;
#X floatatom 612 619 10 0 0 0 - - -;
#X msg 350 626 0;
#X text 77 592 comment;
#X text 377 626 parar;
#X text 395 547 reproducir;
#X obj 351 550 bng 15 250 50 0 empty empty empty 17 7 0 10 -262144
-1 -1;
#X floatatom -8 572 5 0 0 0 - - -;
#X obj 540 665 bng 15 250 50 0 empty empty empty 17 7 0 10 -262144
-1 -1;
#X text 369 458 impluso de entrada;
#X text 786 596 cuenta para stop antes de repetir sample como loop
;
#X obj 350 594 loadbang;
#X msg 562 663 0;
#X obj 62 632 r pararsample;
#X obj 149 633 r retrigger;
#X obj 561 690 s pararsample;
#X obj 350 664 s pararsample;
#X obj 595 596 expr (($f1 / $f2) * 1000) - 0.1;
#X obj -24 117 bng 15 250 50 0 empty empty empty 17 7 0 10 -262144
-1 -1;
#X obj 540 639 delay 6000;
#X obj 441 663 s retrigger;
#X msg 440 626 0;
#X obj 540 715 delay 10;
#X obj 540 776 s retrigger;
#X text -7 37 carga de sample;
#X obj 347 317 inlet;
#X msg 549 748 0;
#X obj -38 58 loadbang;
#X obj -98 966 s~ \$0-phasor4;
#X obj 319 797 r~ \$0-phasor4;
#X msg -99 83 read -resize indio/1.wav sampler.B2;
#X obj 319 822 tabread4~ sampler.B2;
#X connect 2 0 1 0;
#X connect 3 0 5 0;
#X connect 4 0 11 0;
#X connect 5 0 78 0;
#X connect 6 0 19 0;
#X connect 6 0 17 0;
#X connect 6 0 34 0;
#X connect 7 0 8 1;
#X connect 8 0 23 0;
#X connect 8 0 76 0;
#X connect 9 0 18 0;
#X connect 10 0 33 0;
#X connect 11 0 13 0;
#X connect 12 0 8 0;
#X connect 12 0 22 0;
#X connect 14 0 10 0;
#X connect 15 0 7 0;
#X connect 16 0 20 0;
#X connect 17 0 16 1;
#X connect 18 0 33 1;
#X connect 19 0 25 0;
#X connect 20 0 12 0;
#X connect 21 0 29 0;
#X connect 22 0 21 0;
#X connect 23 0 36 0;
#X connect 24 0 28 0;
#X connect 25 0 24 0;
#X connect 26 0 25 1;
#X connect 27 0 26 0;
#X connect 28 0 16 0;
#X connect 30 0 31 0;
#X connect 31 0 12 1;
#X connect 32 0 9 0;
#X connect 33 0 6 0;
#X connect 35 0 55 0;
#X connect 37 0 3 0;
#X connect 39 0 38 0;
#X connect 41 0 42 0;
#X connect 42 0 54 0;
#X connect 42 0 69 0;
#X connect 42 1 67 0;
#X connect 43 0 45 0;
#X connect 44 0 46 0;
#X connect 45 0 65 0;
#X connect 46 0 65 1;
#X connect 47 0 44 0;
#X connect 48 0 47 0;
#X connect 50 0 64 0;
#X connect 54 0 55 0;
#X connect 55 0 12 0;
#X connect 56 0 70 0;
#X connect 59 0 50 0;
#X connect 60 0 63 0;
#X connect 61 0 12 0;
#X connect 62 0 12 1;
#X connect 65 0 49 0;
#X connect 65 0 67 0;
#X connect 66 0 11 0;
#X connect 67 0 56 0;
#X connect 67 0 60 0;
#X connect 69 0 68 0;
#X connect 70 0 74 0;
#X connect 73 0 41 0;
#X connect 74 0 71 0;
#X connect 75 0 78 0;
#X connect 77 0 79 0;
#X connect 78 0 4 0;
#X connect 79 0 39 0;
#X restore 531 571 pd trigger_samples_for_velocity_of_41-75;
#N canvas 833 110 839 668 trigger_samples_for_velocity_of_41-75 0;
#N canvas 0 22 450 300 (subpatch) 0;
#X array sampler.A2 25660 float 2;
#X coords 0 1 25660 -1 600 100 1 0 0;
#X restore 316 68 graph;
#X obj 319 34 hsl 600 15 0 1 0 0 empty empty empty -2 -8 0 10 -262144
-1 -1 0 1;
#X obj 319 797 r~ \$0-phasor;
#X obj 316 10 r \$0-posicion;
#X obj -99 30 bng 15 250 50 0 empty empty empty 17 7 0 10 -262144 -1
-1;
#X obj -99 115 soundfiler;
#X obj -99 48 openpanel;
#X floatatom -98 311 10 0 0 0 - - -;
#X floatatom -83 810 12 0 0 0 - - -;
#X obj -98 836 *~;
#X obj -17 240 samplerate~;
#X floatatom -98 261 15 0 0 0 - - -;
#X floatatom -99 143 12 0 0 0 - - -;
#X obj -98 966 s~ \$0-phasor;
#X obj -99 686 phasor~;
#X obj -99 167 s \$0-cantidad-de-muestras;
#X obj -98 196 r \$0-cantidad-de-muestras;
#X obj -83 786 r \$0-cantidad-de-muestras;
#X obj -98 585 *;
#X floatatom -83 562 10 0 0 0 - - -;
#X floatatom -17 261 10 0 0 0 - - -;
#X floatatom -98 387 10 0 0 0 - - -;
#X floatatom -98 609 10 0 0 0 - - -;
#X obj -23 734 nbx 5 14 -1e+037 1e+037 0 0 empty empty empty 0 -8 0
10 -262144 -1 -1 0 256;
#X obj -23 709 unsig~ 1;
#X obj -83 869 unsig~ 1;
#X msg -98 487 \$1 \$2;
#X obj -98 463 pack f f;
#X floatatom -53 436 10 0 0 0 - - -;
#X obj -53 412 r \$0-frecuencia-de-lectura-interpolacion;
#X obj -98 511 line;
#X obj -23 756 s \$0-posicion;
#X obj -59 633 r \$0-phasor-fase;
#X floatatom -59 657 10 0 0 0 - - -;
#X obj -17 219 loadbang;
#X obj -98 286 expr $f2 / $f1;
#X obj -33 332 s \$0-frecuencia-de-lectura-sin-transposicion;
#X obj 5 516 r \$0-frecuencia-de-lectura-sin-transposicion;
#X floatatom -83 892 12 0 0 0 - - -;
#X obj -99 6 inlet;
#X obj 319 917 outlet~;
#X obj 320 886 *~ 1;
#X obj -68 947 print;
#X obj 348 461 bng 15 250 50 0 empty empty empty 17 7 0 10 -262144
-1 -1;
#X obj 349 486 t b b;
#X obj 596 471 r \$0-cantidad-de-muestras;
#X obj 697 539 samplerate~;
#X floatatom 595 563 15 0 0 0 - - -;
#X floatatom 697 560 10 0 0 0 - - -;
#X obj 697 518 loadbang;
#X obj 696 492 bng 15 250 50 0 empty empty empty 17 7 0 10 -262144
-1 -1;
#X floatatom 612 619 10 0 0 0 - - -;
#X msg 350 626 0;
#X text 77 592 comment;
#X text 377 626 parar;
#X text 395 547 reproducir;
#X obj 351 550 bng 15 250 50 0 empty empty empty 17 7 0 10 -262144
-1 -1;
#X floatatom -8 572 5 0 0 0 - - -;
#X obj 540 665 bng 15 250 50 0 empty empty empty 17 7 0 10 -262144
-1 -1;
#X text 369 458 impluso de entrada;
#X text 786 596 cuenta para stop antes de repetir sample como loop
;
#X obj 350 594 loadbang;
#X msg 562 663 0;
#X obj 62 632 r pararsample;
#X obj 149 633 r retrigger;
#X obj 561 690 s pararsample;
#X obj 350 664 s pararsample;
#X obj 595 596 expr (($f1 / $f2) * 1000) - 0.1;
#X obj -24 117 bng 15 250 50 0 empty empty empty 17 7 0 10 -262144
-1 -1;
#X obj 540 639 delay 6000;
#X obj 441 663 s retrigger;
#X msg 440 626 0;
#X obj 540 715 delay 10;
#X obj 540 776 s retrigger;
#X text -7 37 carga de sample;
#X obj 347 317 inlet;
#X msg 549 748 0;
#X obj -38 58 loadbang;
#X obj 319 822 tabread4~ sampler.A;
#X msg -99 83 read -resize aguila/1.wav sampler.A2;
#X connect 2 0 78 0;
#X connect 3 0 1 0;
#X connect 4 0 6 0;
#X connect 5 0 12 0;
#X connect 6 0 79 0;
#X connect 7 0 21 0;
#X connect 7 0 19 0;
#X connect 7 0 36 0;
#X connect 8 0 9 1;
#X connect 9 0 13 0;
#X connect 9 0 25 0;
#X connect 10 0 20 0;
#X connect 11 0 35 0;
#X connect 12 0 15 0;
#X connect 14 0 9 0;
#X connect 14 0 24 0;
#X connect 16 0 11 0;
#X connect 17 0 8 0;
#X connect 18 0 22 0;
#X connect 19 0 18 1;
#X connect 20 0 35 1;
#X connect 21 0 27 0;
#X connect 22 0 14 0;
#X connect 23 0 31 0;
#X connect 24 0 23 0;
#X connect 25 0 38 0;
#X connect 26 0 30 0;
#X connect 27 0 26 0;
#X connect 28 0 27 1;
#X connect 29 0 28 0;
#X connect 30 0 18 0;
#X connect 32 0 33 0;
#X connect 33 0 14 1;
#X connect 34 0 10 0;
#X connect 35 0 7 0;
#X connect 37 0 57 0;
#X connect 39 0 4 0;
#X connect 41 0 40 0;
#X connect 43 0 44 0;
#X connect 44 0 56 0;
#X connect 44 0 71 0;
#X connect 44 1 69 0;
#X connect 45 0 47 0;
#X connect 46 0 48 0;
#X connect 47 0 67 0;
#X connect 48 0 67 1;
#X connect 49 0 46 0;
#X connect 50 0 49 0;
#X connect 52 0 66 0;
#X connect 56 0 57 0;
#X connect 57 0 14 0;
#X connect 58 0 72 0;
#X connect 61 0 52 0;
#X connect 62 0 65 0;
#X connect 63 0 14 0;
#X connect 64 0 14 1;
#X connect 67 0 51 0;
#X connect 67 0 69 0;
#X connect 68 0 12 0;
#X connect 69 0 58 0;
#X connect 69 0 62 0;
#X connect 71 0 70 0;
#X connect 72 0 76 0;
#X connect 75 0 43 0;
#X connect 76 0 73 0;
#X connect 77 0 79 0;
#X connect 78 0 41 0;
#X connect 79 0 5 0;
#X restore -46 695 pd trigger_samples_for_velocity_of_41-75;
#X obj 530 535 bng 15 250 50 0 empty empty empty 17 7 0 10 -262144
-1 -1;
#X obj 761 535 bng 15 250 50 0 empty empty empty 17 7 0 10 -262144
-1 -1;
#X obj 592 1103 dac~;
#X obj 592 1073 *~ 0.05;
#X obj 1033 941 loadbang;
#X obj 731 953 hsl 128 20 0 1 0 1 empty empty pan_position 6 10 1 11
-262131 -1 -1 6500 0;
#X obj 591 984 linear_pan~;
#X obj 1033 1022 tgl 25 0 empty empty DSP 3 12 1 9 -24198 -1 -1 1 1
;
#X msg 1033 1056 \; pd dsp \$1;
#X obj 650 1074 *~ 0.05;
#X obj 728 901 loadbang;
#X msg 728 925 0.511811;
#X msg 672 926 set \$1;
#X text 798 908 modulo de paneo de cada tampor;
#X text 655 1100 nuevo modulo dac para poder automatizar encendido
;
#X text 1048 1093 comment;
#X msg 1033 970 1;
#X obj 1033 994 delay 3000;
#X msg 963 998 0;
#X obj 893 1022 line 0 100;
#X msg 894 995 0.5 2000;
#X obj 895 971 bng 15 250 50 0 empty empty empty 17 7 0 10 -262144
-1 -1;
#X text 1108 963 comment;
#X obj 1173 1084 dac~;
#X obj 1173 1054 *~ 0.05;
#X obj 1614 922 loadbang;
#X obj 1312 934 hsl 128 20 0 1 0 1 empty empty pan_position 6 10 1
11 -262131 -1 -1 6500 0;
#X obj 1172 965 linear_pan~;
#X obj 1614 1003 tgl 25 0 empty empty DSP 3 12 1 9 -24198 -1 -1 1 1
;
#X msg 1614 1037 \; pd dsp \$1;
#X obj 1231 1055 *~ 0.05;
#X obj 1309 882 loadbang;
#X msg 1309 906 0.511811;
#X msg 1253 907 set \$1;
#X text 1379 889 modulo de paneo de cada tampor;
#X text 1236 1081 nuevo modulo dac para poder automatizar encendido
;
#X text 1629 1074 comment;
#X msg 1614 951 1;
#X obj 1614 975 delay 3000;
#X msg 1544 979 0;
#X obj 1474 1003 line 0 100;
#X msg 1475 976 0.5 2000;
#X obj 1476 952 bng 15 250 50 0 empty empty empty 17 7 0 10 -262144
-1 -1;
#X obj 1747 1071 dac~;
#X obj 1747 1041 *~ 0.05;
#X obj 2188 909 loadbang;
#X obj 1886 921 hsl 128 20 0 1 0 1 empty empty pan_position 6 10 1
11 -262131 -1 -1 6500 0;
#X obj 1746 952 linear_pan~;
#X obj 2188 990 tgl 25 0 empty empty DSP 3 12 1 9 -24198 -1 -1 1 1
;
#X msg 2188 1024 \; pd dsp \$1;
#X obj 1805 1042 *~ 0.05;
#X obj 1883 869 loadbang;
#X msg 1883 893 0.511811;
#X msg 1827 894 set \$1;
#X text 1953 876 modulo de paneo de cada tampor;
#X text 1810 1068 nuevo modulo dac para poder automatizar encendido
;
#X text 2203 1061 comment;
#X msg 2188 938 1;
#X obj 2188 962 delay 3000;
#X text 2263 931 encendido del DSP una vez pasados 3s. de abierto el
patch para prevenir sonidos durante carga de samples;
#X msg 2118 966 0;
#X obj 2048 990 line 0 100;
#X msg 2049 963 0.5 2000;
#X obj 2050 939 bng 15 250 50 0 empty empty empty 17 7 0 10 -262144
-1 -1;
#X text 1689 944 comment;
#X obj 963 297 moses 40;
#N canvas 806 84 839 665 trigger_samples_for_velocity_of_0-40 0;
#N canvas 0 22 450 300 (subpatch) 0;
#X array sampler.C1 19641 float 2;
#X coords 0 1 19641 -1 600 100 1 0 0;
#X restore 316 68 graph;
#X obj 319 34 hsl 600 15 0 1 0 0 empty empty empty -2 -8 0 10 -262144
-1 -1 0 1;
#X obj 316 10 r \$0-posicion;
#X obj -95 26 bng 15 250 50 0 empty empty empty 17 7 0 10 -262144 -1
-1;
#X obj -99 115 soundfiler;
#X obj -99 48 openpanel;
#X floatatom -98 311 10 0 0 0 - - -;
#X floatatom -83 810 12 0 0 0 - - -;
#X obj -98 836 *~;
#X obj -17 240 samplerate~;
#X floatatom -98 261 15 0 0 0 - - -;
#X floatatom -99 142 12 0 0 0 - - -;
#X obj -99 686 phasor~;
#X obj -99 167 s \$0-cantidad-de-muestras;
#X obj -98 196 r \$0-cantidad-de-muestras;
#X obj -83 786 r \$0-cantidad-de-muestras;
#X obj -98 585 *;
#X floatatom -83 562 10 0 0 0 - - -;
#X floatatom -17 261 10 0 0 0 - - -;
#X floatatom -98 387 10 0 0 0 - - -;
#X floatatom -98 609 10 0 0 0 - - -;
#X obj -23 734 nbx 5 14 -1e+037 1e+037 0 0 empty empty empty 0 -8 0
10 -262144 -1 -1 0 256;
#X obj -23 709 unsig~ 1;
#X obj -83 869 unsig~ 1;
#X msg -98 487 \$1 \$2;
#X obj -98 463 pack f f;
#X floatatom -53 436 10 0 0 0 - - -;
#X obj -53 412 r \$0-frecuencia-de-lectura-interpolacion;
#X obj -98 511 line;
#X obj -23 756 s \$0-posicion;
#X obj -59 633 r \$0-phasor-fase;
#X floatatom -59 657 10 0 0 0 - - -;
#X obj -17 219 loadbang;
#X obj -98 286 expr $f2 / $f1;
#X obj -33 332 s \$0-frecuencia-de-lectura-sin-transposicion;
#X obj 5 516 r \$0-frecuencia-de-lectura-sin-transposicion;
#X floatatom -83 892 12 0 0 0 - - -;
#X obj -99 6 inlet;
#X obj 319 917 outlet~;
#X obj 320 886 *~ 1;
#X obj -68 947 print;
#X obj 348 461 bng 15 250 50 0 empty empty empty 17 7 0 10 -262144
-1 -1;
#X obj 349 486 t b b;
#X obj 596 471 r \$0-cantidad-de-muestras;
#X obj 697 539 samplerate~;
#X floatatom 595 563 15 0 0 0 - - -;
#X floatatom 697 560 10 0 0 0 - - -;
#X obj 697 518 loadbang;
#X obj 696 492 bng 15 250 50 0 empty empty empty 17 7 0 10 -262144
-1 -1;
#X floatatom 612 619 10 0 0 0 - - -;
#X msg 350 626 0;
#X text 77 592 comment;
#X text 377 626 parar;
#X text 395 547 reproducir;
#X obj 351 550 bng 15 250 50 0 empty empty empty 17 7 0 10 -262144
-1 -1;
#X floatatom -8 572 5 0 0 0 - - -;
#X obj 540 665 bng 15 250 50 0 empty empty empty 17 7 0 10 -262144
-1 -1;
#X text 369 458 impluso de entrada;
#X text 786 596 cuenta para stop antes de repetir sample como loop
;
#X obj 350 594 loadbang;
#X msg 562 663 0;
#X obj 62 632 r pararsample;
#X obj 149 633 r retrigger;
#X obj 561 690 s pararsample;
#X obj 350 664 s pararsample;
#X obj 595 596 expr (($f1 / $f2) * 1000) - 0.1;
#X obj -24 117 bng 15 250 50 0 empty empty empty 17 7 0 10 -262144
-1 -1;
#X obj 540 639 delay 6000;
#X obj 441 663 s retrigger;
#X msg 440 626 0;
#X obj 540 715 delay 10;
#X obj 540 776 s retrigger;
#X text -7 37 carga de sample;
#X obj 347 317 inlet;
#X msg 549 748 0;
#X obj -38 58 loadbang;
#X obj 319 822 tabread4~ sampler.C1;
#X msg -99 83 read -resize malinalco/0.wav sampler.C1;
#X obj -96 923 s~ \$0-phasor12;
#X obj 319 797 r~ \$0-phasor12;
#X connect 2 0 1 0;
#X connect 3 0 5 0;
#X connect 4 0 11 0;
#X connect 5 0 77 0;
#X connect 6 0 19 0;
#X connect 6 0 17 0;
#X connect 6 0 34 0;
#X connect 7 0 8 1;
#X connect 8 0 23 0;
#X connect 8 0 78 0;
#X connect 9 0 18 0;
#X connect 10 0 33 0;
#X connect 11 0 13 0;
#X connect 12 0 8 0;
#X connect 12 0 22 0;
#X connect 14 0 10 0;
#X connect 15 0 7 0;
#X connect 16 0 20 0;
#X connect 17 0 16 1;
#X connect 18 0 33 1;
#X connect 19 0 25 0;
#X connect 20 0 12 0;
#X connect 21 0 29 0;
#X connect 22 0 21 0;
#X connect 23 0 36 0;
#X connect 24 0 28 0;
#X connect 25 0 24 0;
#X connect 26 0 25 1;
#X connect 27 0 26 0;
#X connect 28 0 16 0;
#X connect 30 0 31 0;
#X connect 31 0 12 1;
#X connect 32 0 9 0;
#X connect 33 0 6 0;
#X connect 35 0 55 0;
#X connect 37 0 3 0;
#X connect 39 0 38 0;
#X connect 41 0 42 0;
#X connect 42 0 54 0;
#X connect 42 0 69 0;
#X connect 42 1 67 0;
#X connect 43 0 45 0;
#X connect 44 0 46 0;
#X connect 45 0 65 0;
#X connect 46 0 65 1;
#X connect 47 0 44 0;
#X connect 48 0 47 0;
#X connect 50 0 64 0;
#X connect 54 0 55 0;
#X connect 55 0 12 0;
#X connect 56 0 70 0;
#X connect 59 0 50 0;
#X connect 60 0 63 0;
#X connect 61 0 12 0;
#X connect 62 0 12 1;
#X connect 65 0 49 0;
#X connect 65 0 67 0;
#X connect 66 0 11 0;
#X connect 67 0 56 0;
#X connect 67 0 60 0;
#X connect 69 0 68 0;
#X connect 70 0 74 0;
#X connect 73 0 41 0;
#X connect 74 0 71 0;
#X connect 75 0 77 0;
#X connect 76 0 39 0;
#X connect 77 0 4 0;
#X connect 79 0 76 0;
#X restore 928 438 pd trigger_samples_for_velocity_of_0-40;
#X obj 1221 482 bng 15 250 50 0 empty empty empty 17 7 0 10 -262144
-1 -1;
#X obj 998 486 bng 15 250 50 0 empty empty empty 17 7 0 10 -262144
-1 -1;
#X text 1117 486 triggea sample;
#X text 1017 485 cambio de sample;
#N canvas 806 84 839 665 trigger_samples_for_velocity_of_41-75 0;
#N canvas 0 22 450 300 (subpatch) 0;
#X array sampler.C2 19641 float 2;
#X coords 0 1 19641 -1 600 100 1 0 0;
#X restore 316 68 graph;
#X obj 319 34 hsl 600 15 0 1 0 0 empty empty empty -2 -8 0 10 -262144
-1 -1 0 1;
#X obj 316 10 r \$0-posicion;
#X obj -95 26 bng 15 250 50 0 empty empty empty 17 7 0 10 -262144 -1
-1;
#X obj -99 115 soundfiler;
#X obj -99 48 openpanel;
#X floatatom -98 311 10 0 0 0 - - -;
#X floatatom -83 810 12 0 0 0 - - -;
#X obj -98 836 *~;
#X obj -17 240 samplerate~;
#X floatatom -98 261 15 0 0 0 - - -;
#X floatatom -99 142 12 0 0 0 - - -;
#X obj -99 686 phasor~;
#X obj -99 167 s \$0-cantidad-de-muestras;
#X obj -98 196 r \$0-cantidad-de-muestras;
#X obj -83 786 r \$0-cantidad-de-muestras;
#X obj -98 585 *;
#X floatatom -83 562 10 0 0 0 - - -;
#X floatatom -17 261 10 0 0 0 - - -;
#X floatatom -98 387 10 0 0 0 - - -;
#X floatatom -98 609 10 0 0 0 - - -;
#X obj -23 734 nbx 5 14 -1e+037 1e+037 0 0 empty empty empty 0 -8 0
10 -262144 -1 -1 0 256;
#X obj -23 709 unsig~ 1;
#X obj -83 869 unsig~ 1;
#X msg -98 487 \$1 \$2;
#X obj -98 463 pack f f;
#X floatatom -53 436 10 0 0 0 - - -;
#X obj -53 412 r \$0-frecuencia-de-lectura-interpolacion;
#X obj -98 511 line;
#X obj -23 756 s \$0-posicion;
#X obj -59 633 r \$0-phasor-fase;
#X floatatom -59 657 10 0 0 0 - - -;
#X obj -17 219 loadbang;
#X obj -98 286 expr $f2 / $f1;
#X obj -33 332 s \$0-frecuencia-de-lectura-sin-transposicion;
#X obj 5 516 r \$0-frecuencia-de-lectura-sin-transposicion;
#X floatatom -83 892 12 0 0 0 - - -;
#X obj -99 6 inlet;
#X obj 319 917 outlet~;
#X obj 320 886 *~ 1;
#X obj -68 947 print;
#X obj 348 461 bng 15 250 50 0 empty empty empty 17 7 0 10 -262144
-1 -1;
#X obj 349 486 t b b;
#X obj 596 471 r \$0-cantidad-de-muestras;
#X obj 697 539 samplerate~;
#X floatatom 595 563 15 0 0 0 - - -;
#X floatatom 697 560 10 0 0 0 - - -;
#X obj 697 518 loadbang;
#X obj 696 492 bng 15 250 50 0 empty empty empty 17 7 0 10 -262144
-1 -1;
#X floatatom 612 619 10 0 0 0 - - -;
#X msg 350 626 0;
#X text 77 592 comment;
#X text 377 626 parar;
#X text 395 547 reproducir;
#X obj 351 550 bng 15 250 50 0 empty empty empty 17 7 0 10 -262144
-1 -1;
#X floatatom -8 572 5 0 0 0 - - -;
#X obj 540 665 bng 15 250 50 0 empty empty empty 17 7 0 10 -262144
-1 -1;
#X text 369 458 impluso de entrada;
#X text 786 596 cuenta para stop antes de repetir sample como loop
;
#X obj 350 594 loadbang;
#X msg 562 663 0;
#X obj 62 632 r pararsample;
#X obj 149 633 r retrigger;
#X obj 561 690 s pararsample;
#X obj 350 664 s pararsample;
#X obj 595 596 expr (($f1 / $f2) * 1000) - 0.1;
#X obj -24 117 bng 15 250 50 0 empty empty empty 17 7 0 10 -262144
-1 -1;
#X obj 540 639 delay 6000;
#X obj 441 663 s retrigger;
#X msg 440 626 0;
#X obj 540 715 delay 10;
#X obj 540 776 s retrigger;
#X text -7 37 carga de sample;
#X obj 347 317 inlet;
#X msg 549 748 0;
#X obj -38 58 loadbang;
#X obj 319 797 r~ \$0-phasor7;
#X obj -96 923 s~ \$0-phasor7;
#X msg -99 83 read -resize malinalco/1.wav sampler.C2;
#X obj 319 822 tabread4~ sampler.C2;
#X connect 2 0 1 0;
#X connect 3 0 5 0;
#X connect 4 0 11 0;
#X connect 5 0 78 0;
#X connect 6 0 19 0;
#X connect 6 0 17 0;
#X connect 6 0 34 0;
#X connect 7 0 8 1;
#X connect 8 0 23 0;
#X connect 8 0 77 0;
#X connect 9 0 18 0;
#X connect 10 0 33 0;
#X connect 11 0 13 0;
#X connect 12 0 8 0;
#X connect 12 0 22 0;
#X connect 14 0 10 0;
#X connect 15 0 7 0;
#X connect 16 0 20 0;
#X connect 17 0 16 1;
#X connect 18 0 33 1;
#X connect 19 0 25 0;
#X connect 20 0 12 0;
#X connect 21 0 29 0;
#X connect 22 0 21 0;
#X connect 23 0 36 0;
#X connect 24 0 28 0;
#X connect 25 0 24 0;
#X connect 26 0 25 1;
#X connect 27 0 26 0;
#X connect 28 0 16 0;
#X connect 30 0 31 0;
#X connect 31 0 12 1;
#X connect 32 0 9 0;
#X connect 33 0 6 0;
#X connect 35 0 55 0;
#X connect 37 0 3 0;
#X connect 39 0 38 0;
#X connect 41 0 42 0;
#X connect 42 0 54 0;
#X connect 42 0 69 0;
#X connect 42 1 67 0;
#X connect 43 0 45 0;
#X connect 44 0 46 0;
#X connect 45 0 65 0;
#X connect 46 0 65 1;
#X connect 47 0 44 0;
#X connect 48 0 47 0;
#X connect 50 0 64 0;
#X connect 54 0 55 0;
#X connect 55 0 12 0;
#X connect 56 0 70 0;
#X connect 59 0 50 0;
#X connect 60 0 63 0;
#X connect 61 0 12 0;
#X connect 62 0 12 1;
#X connect 65 0 49 0;
#X connect 65 0 67 0;
#X connect 66 0 11 0;
#X connect 67 0 56 0;
#X connect 67 0 60 0;
#X connect 69 0 68 0;
#X connect 70 0 74 0;
#X connect 73 0 41 0;
#X connect 74 0 71 0;
#X connect 75 0 78 0;
#X connect 76 0 79 0;
#X connect 78 0 4 0;
#X connect 79 0 39 0;
#X restore 999 507 pd trigger_samples_for_velocity_of_41-75;
#X obj 1403 174 moses 100;
#X obj 1403 232 moses 75;
#X msg 1469 99 127;
#X msg 1469 140 60;
#X msg 1469 119 85;
#X obj 1371 119 stripnote;
#X obj 1409 28 bng 15 250 50 0 empty empty empty 17 7 0 10 -262144
-1 -1;
#X obj 1590 381 bng 15 250 50 0 empty empty empty 17 7 0 10 -262144
-1 -1;
#N canvas 352 73 1440 804 trigger_samples_for_velocity_of_100-127 0
;
#N canvas 0 22 450 300 (subpatch) 0;
#X array sampler.D4 31238 float 2;
#X coords 0 1 31238 -1 600 100 1 0 0;
#X restore 325 77 graph;
#X obj 329 44 hsl 600 15 0 1 0 0 empty empty empty -2 -8 0 10 -262144
-1 -1 0 1;
#X obj -89 40 bng 15 250 50 0 empty empty empty 17 7 0 10 -262144 -1
-1;
#X obj -89 125 soundfiler;
#X obj -88 65 openpanel;
#X floatatom -88 321 10 0 0 0 - - -;
#X floatatom -73 820 12 0 0 0 - - -;
#X obj -88 846 *~;
#X obj 76 245 samplerate~;
#X floatatom -88 271 15 0 0 0 - - -;
#X floatatom -89 152 12 0 0 0 - - -;
#X obj -88 595 *;
#X floatatom -73 572 10 0 0 0 - - -;
#X floatatom 78 273 10 0 0 0 - - -;
#X floatatom -88 397 10 0 0 0 - - -;
#X floatatom -88 619 10 0 0 0 - - -;
#X obj -13 744 nbx 5 14 -1e+037 1e+037 0 0 empty empty empty 0 -8 0
10 -262144 -1 -1 0 256;
#X obj -13 719 unsig~ 1;
#X obj -73 879 unsig~ 1;
#X msg -88 497 \$1 \$2;
#X obj -88 473 pack f f;
#X floatatom -43 446 10 0 0 0 - - -;
#X obj -88 521 line;
#X obj 76 224 loadbang;
#X obj -88 296 expr $f2 / $f1;
#X floatatom -73 902 12 0 0 0 - - -;
#X obj -89 16 inlet;
#X obj 329 927 outlet~;
#X obj 330 896 *~ 1;
#X obj 358 471 bng 15 250 50 0 empty empty empty 17 7 0 10 -262144
-1 -1;
#X obj 359 496 t b b;
#X obj 707 549 samplerate~;
#X floatatom 605 573 15 0 0 0 - - -;
#X floatatom 707 570 10 0 0 0 - - -;
#X obj 707 528 loadbang;
#X obj 706 502 bng 15 250 50 0 empty empty empty 17 7 0 10 -262144
-1 -1;
#X floatatom 622 629 10 0 0 0 - - -;
#X msg 360 636 0;
#X text 87 602 comment;
#X text 387 636 parar;
#X text 405 557 reproducir;
#X obj 361 560 bng 15 250 50 0 empty empty empty 17 7 0 10 -262144
-1 -1;
#X floatatom 2 582 5 0 0 0 - - -;
#X obj 550 675 bng 15 250 50 0 empty empty empty 17 7 0 10 -262144
-1 -1;
#X text 379 468 impluso de entrada;
#X text 796 606 cuenta para stop antes de repetir sample como loop
;
#X obj 360 604 loadbang;
#X msg 572 673 0;
#X obj 550 649 delay 6000;
#X msg 450 636 0;
#X obj 550 725 delay 10;
#X text 60 30 carga de sample;
#X obj 357 327 inlet;
#X obj 17 114 print;
#X obj -89 696 phasor~ 0;
#X msg 549 748 0;
#X obj -89 177 s \$0-cantidad-de-muestras3;
#X obj -88 206 r \$0-cantidad-de-muestras3;
#X obj -23 342 s \$0-frecuencia-de-lectura-sin-transposicion3;
#X obj -43 422 r \$0-frecuencia-de-lectura-interpolacion3;
#X obj 15 527 r \$0-frecuencia-de-lectura-sin-transposicion3;
#X obj 72 642 r pararsample3;
#X obj 168 643 r retrigger3;
#X obj -14 766 s \$0-posicion3;
#X obj -73 796 r \$0-cantidad-de-muestras3;
#X obj 548 780 s retrigger3;
#X obj 571 700 s pararsample3;
#X obj 360 673 s pararsample3;
#X obj 451 673 s retrigger3;
#X obj 606 482 r \$0-cantidad-de-muestras3;
#X obj 326 20 r \$0-posicion3;
#X obj 605 606 expr (($f1 / $f2) * 1000) - 0.1;
#X obj 583 541 bng 15 250 50 0 empty empty empty 17 7 0 10 -262144
-1 -1;
#X obj 96 200 bng 15 250 50 0 empty empty empty 17 7 0 10 -262144 -1
-1;
#X obj -19 66 loadbang;
#X obj 329 832 tabread4~ sampler.D4;
#X msg -89 90 read -resize pow/3.wav sampler.D4;
#X obj 329 807 r~ \$0-phasor16;
#X obj -88 976 s~ \$0-phasor16;
#X connect 2 0 4 0;
#X connect 3 0 10 0;
#X connect 4 0 76 0;
#X connect 5 0 14 0;
#X connect 5 0 12 0;
#X connect 5 0 58 0;
#X connect 6 0 7 1;
#X connect 7 0 18 0;
#X connect 7 0 78 0;
#X connect 8 0 13 0;
#X connect 9 0 24 0;
#X connect 10 0 56 0;
#X connect 11 0 15 0;
#X connect 12 0 11 1;
#X connect 13 0 24 1;
#X connect 14 0 20 0;
#X connect 15 0 54 0;
#X connect 16 0 63 0;
#X connect 17 0 16 0;
#X connect 18 0 25 0;
#X connect 19 0 22 0;
#X connect 20 0 19 0;
#X connect 21 0 20 1;
#X connect 22 0 11 0;
#X connect 23 0 8 0;
#X connect 24 0 5 0;
#X connect 26 0 2 0;
#X connect 28 0 27 0;
#X connect 29 0 30 0;
#X connect 30 0 41 0;
#X connect 30 0 49 0;
#X connect 30 1 48 0;
#X connect 31 0 33 0;
#X connect 32 0 71 0;
#X connect 33 0 71 1;
#X connect 34 0 31 0;
#X connect 35 0 34 0;
#X connect 37 0 67 0;
#X connect 41 0 42 0;
#X connect 42 0 54 0;
#X connect 43 0 50 0;
#X connect 46 0 37 0;
#X connect 47 0 66 0;
#X connect 48 0 43 0;
#X connect 48 0 47 0;
#X connect 49 0 68 0;
#X connect 50 0 55 0;
#X connect 52 0 29 0;
#X connect 54 0 7 0;
#X connect 54 0 17 0;
#X connect 55 0 65 0;
#X connect 57 0 9 0;
#X connect 59 0 21 0;
#X connect 60 0 42 0;
#X connect 61 0 54 0;
#X connect 62 0 54 1;
#X connect 64 0 6 0;
#X connect 69 0 32 0;
#X connect 70 0 1 0;
#X connect 71 0 36 0;
#X connect 71 0 48 0;
#X connect 72 0 32 0;
#X connect 73 0 23 0;
#X connect 74 0 76 0;
#X connect 75 0 28 0;
#X connect 76 0 3 0;
#X connect 76 0 53 0;
#X connect 77 0 75 0;
#X restore 1599 673 pd trigger_samples_for_velocity_of_100-127;
#X obj 1367 385 bng 15 250 50 0 empty empty empty 17 7 0 10 -262144
-1 -1;
#X text 1486 385 triggea sample;
#X obj 1762 539 bng 15 250 50 0 empty empty empty 17 7 0 10 -262144
-1 -1;
#X obj 1523 536 bng 15 250 50 0 empty empty empty 17 7 0 10 -262144
-1 -1;
#X text 1646 552 triggea sample;
#N canvas 1915 1021 1920 1026 trigger_samples_for_velocity_of_76-99
1;
#N canvas 0 22 450 300 (subpatch) 0;
#X array sampler.D3 53315 float 2;
#X coords 0 1 53315 -1 600 100 1 0 0;
#X restore 316 68 graph;
#X obj 319 34 hsl 600 15 0 1 0 0 empty empty empty -2 -8 0 10 -262144
-1 -1 0 1;
#X obj -99 30 bng 15 250 50 0 empty empty empty 17 7 0 10 -262144 -1
-1;
#X obj -99 115 soundfiler;
#X obj -98 55 openpanel;
#X floatatom -98 311 10 0 0 0 - - -;
#X floatatom -83 810 12 0 0 0 - - -;
#X obj -98 836 *~;
#X obj -17 240 samplerate~;
#X floatatom -98 261 15 0 0 0 - - -;
#X floatatom -99 142 12 0 0 0 - - -;
#X obj -98 585 *;
#X floatatom -83 562 10 0 0 0 - - -;
#X floatatom -17 261 10 0 0 0 - - -;
#X floatatom -98 387 10 0 0 0 - - -;
#X floatatom -98 609 10 0 0 0 - - -;
#X obj -23 734 nbx 5 14 -1e+037 1e+037 0 0 empty empty empty 0 -8 0
10 -262144 -1 -1 0 256;
#X obj -23 709 unsig~ 1;
#X obj -83 869 unsig~ 1;
#X msg -98 487 \$1 \$2;
#X obj -98 463 pack f f;
#X floatatom -53 436 10 0 0 0 - - -;
#X obj -98 511 line;
#X obj -17 219 loadbang;
#X obj -98 286 expr $f2 / $f1;
#X floatatom -83 892 12 0 0 0 - - -;
#X obj -99 6 inlet;
#X obj 319 917 outlet~;
#X obj 320 886 *~ 1;
#X obj 348 461 bng 15 250 50 0 empty empty empty 17 7 0 10 -262144
-1 -1;
#X obj 349 486 t b b;
#X obj 697 539 samplerate~;
#X floatatom 595 563 15 0 0 0 - - -;
#X floatatom 697 560 10 0 0 0 - - -;
#X obj 697 518 loadbang;
#X obj 696 492 bng 15 250 50 0 empty empty empty 17 7 0 10 -262144
-1 -1;
#X floatatom 612 619 10 0 0 0 - - -;
#X msg 350 626 0;
#X text 77 592 comment;
#X text 377 626 parar;
#X text 395 547 reproducir;
#X obj 351 550 bng 15 250 50 0 empty empty empty 17 7 0 10 -262144
-1 -1;
#X floatatom -8 572 5 0 0 0 - - -;
#X obj 540 665 bng 15 250 50 0 empty empty empty 17 7 0 10 -262144
-1 -1;
#X text 369 458 impluso de entrada;
#X text 786 596 cuenta para stop antes de repetir sample como loop
;
#X obj 350 594 loadbang;
#X msg 562 663 0;
#X obj 595 596 expr (($f1 / $f2) * 1000) - 0.1;
#X obj 540 639 delay 6000;
#X msg 440 626 0;
#X obj 540 715 delay 10;
#X text 2 46 carga de sample;
#X obj 347 317 inlet;
#X obj 561 690 s pararsample2;
#X obj 538 770 s retrigger2;
#X obj 441 663 s retrigger2;
#X obj 350 663 s pararsample2;
#X obj 62 632 r pararsample2;
#X obj 158 633 r retrigger2;
#X obj -53 412 r \$0-frecuencia-de-lectura-interpolacion2;
#X obj -33 332 s \$0-frecuencia-de-lectura-sin-transposicion2;
#X obj 5 516 r \$0-frecuencia-de-lectura-sin-transposicion2;
#X obj 596 472 r \$0-cantidad-de-muestras2;
#X obj -99 167 s \$0-cantidad-de-muestras2;
#X obj -98 196 r \$0-cantidad-de-muestras2;
#X obj 7 104 print;
#X obj -83 786 r \$0-cantidad-de-muestras2;
#X obj -99 686 phasor~ 0;
#X obj -23 756 s \$0-posicion2;
#X obj 316 10 r \$0-posicion2;
#X msg 539 738 0;
#X obj -32 57 loadbang;
#X msg -99 78 read -resize pow/2.wav sampler.D3;
#X obj -98 966 s~ \$0-phasor14;
#X obj 319 797 r~ \$0-phasor14;
#X obj 319 822 tabread4~ sampler.D3;
#X connect 2 0 4 0;
#X connect 3 0 10 0;
#X connect 4 0 73 0;
#X connect 5 0 14 0;
#X connect 5 0 12 0;
#X connect 5 0 61 0;
#X connect 6 0 7 1;
#X connect 7 0 18 0;
#X connect 7 0 74 0;
#X connect 8 0 13 0;
#X connect 9 0 24 0;
#X connect 10 0 64 0;
#X connect 11 0 15 0;
#X connect 12 0 11 1;
#X connect 13 0 24 1;
#X connect 14 0 20 0;
#X connect 15 0 68 0;
#X connect 16 0 69 0;
#X connect 17 0 16 0;
#X connect 18 0 25 0;
#X connect 19 0 22 0;
#X connect 20 0 19 0;
#X connect 21 0 20 1;
#X connect 22 0 11 0;
#X connect 23 0 8 0;
#X connect 24 0 5 0;
#X connect 26 0 2 0;
#X connect 28 0 27 0;
#X connect 29 0 30 0;
#X connect 30 0 41 0;
#X connect 30 0 50 0;
#X connect 30 1 49 0;
#X connect 31 0 33 0;
#X connect 32 0 48 0;
#X connect 33 0 48 1;
#X connect 34 0 31 0;
#X connect 35 0 34 0;
#X connect 37 0 57 0;
#X connect 41 0 42 0;
#X connect 42 0 68 0;
#X connect 43 0 51 0;
#X connect 46 0 37 0;
#X connect 47 0 54 0;
#X connect 48 0 36 0;
#X connect 48 0 49 0;
#X connect 49 0 43 0;
#X connect 49 0 47 0;
#X connect 50 0 56 0;
#X connect 51 0 71 0;
#X connect 53 0 29 0;
#X connect 58 0 68 0;
#X connect 59 0 68 1;
#X connect 60 0 21 0;
#X connect 62 0 42 0;
#X connect 63 0 32 0;
#X connect 65 0 9 0;
#X connect 67 0 6 0;
#X connect 68 0 7 0;
#X connect 68 0 17 0;
#X connect 70 0 1 0;
#X connect 71 0 55 0;
#X connect 72 0 73 0;
#X connect 73 0 3 0;
#X connect 73 0 66 0;
#X connect 75 0 76 0;
#X connect 76 0 28 0;
#X restore 1528 573 pd trigger_samples_for_velocity_of_76-99;
#X obj 1839 644 bng 15 250 50 0 empty empty empty 17 7 0 10 -262144
-1 -1;
#X text 1612 640 carga sample;
#X obj 1593 639 bng 15 250 50 0 empty empty empty 17 7 0 10 -262144
-1 -1;
#X text 1712 641 triggea sample;
#X text 1386 384 cambio de sample;
#X text 1546 551 cambio de sample;
#X msg 1378 56 16;
#X obj 1409 271 moses 40;
#N canvas 692 99 839 665 trigger_samples_for_velocity_of_0-40 0;
#N canvas 0 22 450 300 (subpatch) 0;
#X array sampler.D1 19641 float 2;
#X coords 0 1 19641 -1 600 100 1 0 0;
#X restore 316 68 graph;
#X obj 319 34 hsl 600 15 0 1 0 0 empty empty empty -2 -8 0 10 -262144
-1 -1 0 1;
#X obj 316 10 r \$0-posicion;
#X obj -95 26 bng 15 250 50 0 empty empty empty 17 7 0 10 -262144 -1
-1;
#X obj -99 115 soundfiler;
#X obj -99 48 openpanel;
#X floatatom -98 311 10 0 0 0 - - -;
#X floatatom -83 810 12 0 0 0 - - -;
#X obj -98 836 *~;
#X obj -17 240 samplerate~;
#X floatatom -98 261 15 0 0 0 - - -;
#X floatatom -99 142 12 0 0 0 - - -;
#X obj -99 686 phasor~;
#X obj -99 167 s \$0-cantidad-de-muestras;
#X obj -98 196 r \$0-cantidad-de-muestras;
#X obj -83 786 r \$0-cantidad-de-muestras;
#X obj -98 585 *;
#X floatatom -83 562 10 0 0 0 - - -;
#X floatatom -17 261 10 0 0 0 - - -;
#X floatatom -98 387 10 0 0 0 - - -;
#X floatatom -98 609 10 0 0 0 - - -;
#X obj -23 734 nbx 5 14 -1e+037 1e+037 0 0 empty empty empty 0 -8 0
10 -262144 -1 -1 0 256;
#X obj -23 709 unsig~ 1;
#X obj -83 869 unsig~ 1;
#X msg -98 487 \$1 \$2;
#X obj -98 463 pack f f;
#X floatatom -53 436 10 0 0 0 - - -;
#X obj -53 412 r \$0-frecuencia-de-lectura-interpolacion;
#X obj -98 511 line;
#X obj -23 756 s \$0-posicion;
#X obj -59 633 r \$0-phasor-fase;
#X floatatom -59 657 10 0 0 0 - - -;
#X obj -17 219 loadbang;
#X obj -98 286 expr $f2 / $f1;
#X obj -33 332 s \$0-frecuencia-de-lectura-sin-transposicion;
#X obj 5 516 r \$0-frecuencia-de-lectura-sin-transposicion;
#X floatatom -83 892 12 0 0 0 - - -;
#X obj -99 6 inlet;
#X obj 319 917 outlet~;
#X obj 320 886 *~ 1;
#X obj -68 947 print;
#X obj 348 461 bng 15 250 50 0 empty empty empty 17 7 0 10 -262144
-1 -1;
#X obj 349 486 t b b;
#X obj 596 471 r \$0-cantidad-de-muestras;
#X obj 697 539 samplerate~;
#X floatatom 595 563 15 0 0 0 - - -;
#X floatatom 697 560 10 0 0 0 - - -;
#X obj 697 518 loadbang;
#X obj 696 492 bng 15 250 50 0 empty empty empty 17 7 0 10 -262144
-1 -1;
#X floatatom 612 619 10 0 0 0 - - -;
#X msg 350 626 0;
#X text 77 592 comment;
#X text 377 626 parar;
#X text 395 547 reproducir;
#X obj 351 550 bng 15 250 50 0 empty empty empty 17 7 0 10 -262144
-1 -1;
#X floatatom -8 572 5 0 0 0 - - -;
#X obj 540 665 bng 15 250 50 0 empty empty empty 17 7 0 10 -262144
-1 -1;
#X text 369 458 impluso de entrada;
#X text 786 596 cuenta para stop antes de repetir sample como loop
;
#X obj 350 594 loadbang;
#X msg 562 663 0;
#X obj 62 632 r pararsample;
#X obj 149 633 r retrigger;
#X obj 561 690 s pararsample;
#X obj 350 664 s pararsample;
#X obj 595 596 expr (($f1 / $f2) * 1000) - 0.1;
#X obj -24 117 bng 15 250 50 0 empty empty empty 17 7 0 10 -262144
-1 -1;
#X obj 540 639 delay 6000;
#X obj 441 663 s retrigger;
#X msg 440 626 0;
#X obj 540 715 delay 10;
#X obj 540 776 s retrigger;
#X text -7 37 carga de sample;
#X obj 347 317 inlet;
#X msg 549 748 0;
#X obj -38 58 loadbang;
#X obj 319 822 tabread4~ sampler.D1;
#X obj -96 923 s~ \$0-phasor13;
#X msg -99 83 read -resize pow/0.wav sampler.D1;
#X obj 319 797 r~ \$0-phasor13;
#X connect 2 0 1 0;
#X connect 3 0 5 0;
#X connect 4 0 11 0;
#X connect 5 0 78 0;
#X connect 6 0 19 0;
#X connect 6 0 17 0;
#X connect 6 0 34 0;
#X connect 7 0 8 1;
#X connect 8 0 23 0;
#X connect 8 0 77 0;
#X connect 9 0 18 0;
#X connect 10 0 33 0;
#X connect 11 0 13 0;
#X connect 12 0 8 0;
#X connect 12 0 22 0;
#X connect 14 0 10 0;
#X connect 15 0 7 0;
#X connect 16 0 20 0;
#X connect 17 0 16 1;
#X connect 18 0 33 1;
#X connect 19 0 25 0;
#X connect 20 0 12 0;
#X connect 21 0 29 0;
#X connect 22 0 21 0;
#X connect 23 0 36 0;
#X connect 24 0 28 0;
#X connect 25 0 24 0;
#X connect 26 0 25 1;
#X connect 27 0 26 0;
#X connect 28 0 16 0;
#X connect 30 0 31 0;
#X connect 31 0 12 1;
#X connect 32 0 9 0;
#X connect 33 0 6 0;
#X connect 35 0 55 0;
#X connect 37 0 3 0;
#X connect 39 0 38 0;
#X connect 41 0 42 0;
#X connect 42 0 54 0;
#X connect 42 0 69 0;
#X connect 42 1 67 0;
#X connect 43 0 45 0;
#X connect 44 0 46 0;
#X connect 45 0 65 0;
#X connect 46 0 65 1;
#X connect 47 0 44 0;
#X connect 48 0 47 0;
#X connect 50 0 64 0;
#X connect 54 0 55 0;
#X connect 55 0 12 0;
#X connect 56 0 70 0;
#X connect 59 0 50 0;
#X connect 60 0 63 0;
#X connect 61 0 12 0;
#X connect 62 0 12 1;
#X connect 65 0 49 0;
#X connect 65 0 67 0;
#X connect 66 0 11 0;
#X connect 67 0 56 0;
#X connect 67 0 60 0;
#X connect 69 0 68 0;
#X connect 70 0 74 0;
#X connect 73 0 41 0;
#X connect 74 0 71 0;
#X connect 75 0 78 0;
#X connect 76 0 39 0;
#X connect 78 0 4 0;
#X connect 79 0 76 0;
#X restore 1374 412 pd trigger_samples_for_velocity_of_0-40;
#X obj 1667 456 bng 15 250 50 0 empty empty empty 17 7 0 10 -262144
-1 -1;
#X obj 1444 460 bng 15 250 50 0 empty empty empty 17 7 0 10 -262144
-1 -1;
#X text 1563 460 triggea sample;
#X text 1463 459 cambio de sample;
#N canvas 806 84 839 665 trigger_samples_for_velocity_of_41-75 0;
#N canvas 0 22 450 300 (subpatch) 0;
#X array sampler.D2 19641 float 2;
#X coords 0 1 19641 -1 600 100 1 0 0;
#X restore 316 68 graph;
#X obj 319 34 hsl 600 15 0 1 0 0 empty empty empty -2 -8 0 10 -262144
-1 -1 0 1;
#X obj 316 10 r \$0-posicion;
#X obj -95 26 bng 15 250 50 0 empty empty empty 17 7 0 10 -262144 -1
-1;
#X obj -99 115 soundfiler;
#X obj -99 48 openpanel;
#X floatatom -98 311 10 0 0 0 - - -;
#X floatatom -83 810 12 0 0 0 - - -;
#X obj -98 836 *~;
#X obj -17 240 samplerate~;
#X floatatom -98 261 15 0 0 0 - - -;
#X floatatom -99 142 12 0 0 0 - - -;
#X obj -99 686 phasor~;
#X obj -99 167 s \$0-cantidad-de-muestras;
#X obj -98 196 r \$0-cantidad-de-muestras;
#X obj -83 786 r \$0-cantidad-de-muestras;
#X obj -98 585 *;
#X floatatom -83 562 10 0 0 0 - - -;
#X floatatom -17 261 10 0 0 0 - - -;
#X floatatom -98 387 10 0 0 0 - - -;
#X floatatom -98 609 10 0 0 0 - - -;
#X obj -23 734 nbx 5 14 -1e+037 1e+037 0 0 empty empty empty 0 -8 0
10 -262144 -1 -1 0 256;
#X obj -23 709 unsig~ 1;
#X obj -83 869 unsig~ 1;
#X msg -98 487 \$1 \$2;
#X obj -98 463 pack f f;
#X floatatom -53 436 10 0 0 0 - - -;
#X obj -53 412 r \$0-frecuencia-de-lectura-interpolacion;
#X obj -98 511 line;
#X obj -23 756 s \$0-posicion;
#X obj -59 633 r \$0-phasor-fase;
#X floatatom -59 657 10 0 0 0 - - -;
#X obj -17 219 loadbang;
#X obj -98 286 expr $f2 / $f1;
#X obj -33 332 s \$0-frecuencia-de-lectura-sin-transposicion;
#X obj 5 516 r \$0-frecuencia-de-lectura-sin-transposicion;
#X floatatom -83 892 12 0 0 0 - - -;
#X obj -99 6 inlet;
#X obj 319 917 outlet~;
#X obj 320 886 *~ 1;
#X obj -68 947 print;
#X obj 348 461 bng 15 250 50 0 empty empty empty 17 7 0 10 -262144
-1 -1;
#X obj 349 486 t b b;
#X obj 596 471 r \$0-cantidad-de-muestras;
#X obj 697 539 samplerate~;
#X floatatom 595 563 15 0 0 0 - - -;
#X floatatom 697 560 10 0 0 0 - - -;
#X obj 697 518 loadbang;
#X obj 696 492 bng 15 250 50 0 empty empty empty 17 7 0 10 -262144
-1 -1;
#X floatatom 612 619 10 0 0 0 - - -;
#X msg 350 626 0;
#X text 77 592 comment;
#X text 377 626 parar;
#X text 395 547 reproducir;
#X obj 351 550 bng 15 250 50 0 empty empty empty 17 7 0 10 -262144
-1 -1;
#X floatatom -8 572 5 0 0 0 - - -;
#X obj 540 665 bng 15 250 50 0 empty empty empty 17 7 0 10 -262144
-1 -1;
#X text 369 458 impluso de entrada;
#X text 786 596 cuenta para stop antes de repetir sample como loop
;
#X obj 350 594 loadbang;
#X msg 562 663 0;
#X obj 62 632 r pararsample;
#X obj 149 633 r retrigger;
#X obj 561 690 s pararsample;
#X obj 350 664 s pararsample;
#X obj 595 596 expr (($f1 / $f2) * 1000) - 0.1;
#X obj -24 117 bng 15 250 50 0 empty empty empty 17 7 0 10 -262144
-1 -1;
#X obj 540 639 delay 6000;
#X obj 441 663 s retrigger;
#X msg 440 626 0;
#X obj 540 715 delay 10;
#X obj 540 776 s retrigger;
#X text -7 37 carga de sample;
#X obj 347 317 inlet;
#X msg 549 748 0;
#X obj -38 58 loadbang;
#X msg -99 83 read -resize pow/1.wav sampler.D2;
#X obj -96 923 s~ \$0-phasor13;
#X obj 320 796 r~ \$0-phasor13;
#X obj 319 822 tabread4~ sampler.D2;
#X connect 2 0 1 0;
#X connect 3 0 5 0;
#X connect 4 0 11 0;
#X connect 5 0 76 0;
#X connect 6 0 19 0;
#X connect 6 0 17 0;
#X connect 6 0 34 0;
#X connect 7 0 8 1;
#X connect 8 0 23 0;
#X connect 8 0 77 0;
#X connect 9 0 18 0;
#X connect 10 0 33 0;
#X connect 11 0 13 0;
#X connect 12 0 8 0;
#X connect 12 0 22 0;
#X connect 14 0 10 0;
#X connect 15 0 7 0;
#X connect 16 0 20 0;
#X connect 17 0 16 1;
#X connect 18 0 33 1;
#X connect 19 0 25 0;
#X connect 20 0 12 0;
#X connect 21 0 29 0;
#X connect 22 0 21 0;
#X connect 23 0 36 0;
#X connect 24 0 28 0;
#X connect 25 0 24 0;
#X connect 26 0 25 1;
#X connect 27 0 26 0;
#X connect 28 0 16 0;
#X connect 30 0 31 0;
#X connect 31 0 12 1;
#X connect 32 0 9 0;
#X connect 33 0 6 0;
#X connect 35 0 55 0;
#X connect 37 0 3 0;
#X connect 39 0 38 0;
#X connect 41 0 42 0;
#X connect 42 0 54 0;
#X connect 42 0 69 0;
#X connect 42 1 67 0;
#X connect 43 0 45 0;
#X connect 44 0 46 0;
#X connect 45 0 65 0;
#X connect 46 0 65 1;
#X connect 47 0 44 0;
#X connect 48 0 47 0;
#X connect 50 0 64 0;
#X connect 54 0 55 0;
#X connect 55 0 12 0;
#X connect 56 0 70 0;
#X connect 59 0 50 0;
#X connect 60 0 63 0;
#X connect 61 0 12 0;
#X connect 62 0 12 1;
#X connect 65 0 49 0;
#X connect 65 0 67 0;
#X connect 66 0 11 0;
#X connect 67 0 56 0;
#X connect 67 0 60 0;
#X connect 69 0 68 0;
#X connect 70 0 74 0;
#X connect 73 0 41 0;
#X connect 74 0 71 0;
#X connect 75 0 76 0;
#X connect 76 0 4 0;
#X connect 78 0 79 0;
#X connect 79 0 39 0;
#X restore 1445 481 pd trigger_samples_for_velocity_of_41-75;
#X obj 1387 -18 route 4;
#X connect 0 0 1 0;
#X connect 0 1 20 0;
#X connect 1 0 95 0;
#X connect 1 1 16 0;
#X connect 2 0 0 0;
#X connect 3 0 0 0;
#X connect 4 0 102 1;
#X connect 5 0 0 0;
#X connect 6 0 77 0;
#X connect 7 1 0 0;
#X connect 8 0 9 0;
#X connect 9 0 12 0;
#X connect 9 0 26 0;
#X connect 9 0 69 0;
#X connect 9 0 204 0;
#X connect 10 0 7 0;
#X connect 12 0 10 0;
#X connect 12 0 11 0;
#X connect 12 0 7 1;
#X connect 14 0 102 0;
#X connect 16 0 19 1;
#X connect 17 0 19 0;
#X connect 19 0 77 0;
#X connect 20 0 6 1;
#X connect 22 0 6 0;
#X connect 26 0 32 1;
#X connect 26 0 70 0;
#X connect 26 0 33 0;
#X connect 27 0 28 0;
#X connect 27 1 42 0;
#X connect 28 0 99 0;
#X connect 28 1 38 0;
#X connect 29 0 27 0;
#X connect 30 0 27 0;
#X connect 31 0 27 0;
#X connect 32 1 27 0;
#X connect 34 0 100 1;
#X connect 35 0 109 0;
#X connect 36 0 100 0;
#X connect 38 0 41 1;
#X connect 39 0 41 0;
#X connect 41 0 109 0;
#X connect 42 0 35 1;
#X connect 44 0 35 0;
#X connect 48 0 49 0;
#X connect 48 1 63 0;
#X connect 49 0 168 0;
#X connect 49 1 59 0;
#X connect 50 0 48 0;
#X connect 51 0 48 0;
#X connect 52 0 48 0;
#X connect 53 1 48 0;
#X connect 55 0 169 1;
#X connect 56 0 130 0;
#X connect 57 0 169 0;
#X connect 59 0 62 1;
#X connect 60 0 62 0;
#X connect 62 0 130 0;
#X connect 63 0 56 1;
#X connect 65 0 56 0;
#X connect 69 0 53 1;
#X connect 69 0 71 0;
#X connect 69 0 54 0;
#X connect 70 0 32 0;
#X connect 71 0 53 0;
#X connect 74 0 73 0;
#X connect 75 0 88 0;
#X connect 76 0 77 1;
#X connect 76 0 83 0;
#X connect 77 0 74 0;
#X connect 77 0 80 0;
#X connect 78 0 79 0;
#X connect 80 0 73 1;
#X connect 81 0 82 0;
#X connect 82 0 76 0;
#X connect 83 0 82 0;
#X connect 88 0 89 0;
#X connect 89 0 78 0;
#X connect 89 0 94 0;
#X connect 91 0 92 0;
#X connect 92 0 80 1;
#X connect 92 0 74 1;
#X connect 93 0 92 0;
#X connect 94 0 93 0;
#X connect 95 0 97 0;
#X connect 95 1 4 0;
#X connect 96 0 77 0;
#X connect 97 0 96 1;
#X connect 98 0 96 0;
#X connect 99 0 34 0;
#X connect 99 1 104 0;
#X connect 100 0 109 0;
#X connect 101 0 109 0;
#X connect 102 0 77 0;
#X connect 103 0 101 0;
#X connect 104 0 101 1;
#X connect 106 0 105 0;
#X connect 107 0 119 0;
#X connect 108 0 109 1;
#X connect 108 0 115 0;
#X connect 109 0 106 0;
#X connect 109 0 112 0;
#X connect 110 0 111 0;
#X connect 112 0 105 1;
#X connect 113 0 114 0;
#X connect 114 0 108 0;
#X connect 115 0 114 0;
#X connect 119 0 120 0;
#X connect 120 0 110 0;
#X connect 120 0 124 0;
#X connect 121 0 122 0;
#X connect 122 0 112 1;
#X connect 122 0 106 1;
#X connect 123 0 122 0;
#X connect 124 0 123 0;
#X connect 127 0 126 0;
#X connect 128 0 140 0;
#X connect 129 0 130 1;
#X connect 129 0 136 0;
#X connect 130 0 127 0;
#X connect 130 0 133 0;
#X connect 131 0 132 0;
#X connect 133 0 126 1;
#X connect 134 0 135 0;
#X connect 135 0 129 0;
#X connect 136 0 135 0;
#X connect 140 0 141 0;
#X connect 141 0 131 0;
#X connect 141 0 145 0;
#X connect 142 0 143 0;
#X connect 143 0 133 1;
#X connect 143 0 127 1;
#X connect 144 0 143 0;
#X connect 145 0 144 0;
#X connect 147 0 146 0;
#X connect 148 0 160 0;
#X connect 149 0 150 1;
#X connect 149 0 156 0;
#X connect 150 0 147 0;
#X connect 150 0 153 0;
#X connect 151 0 152 0;
#X connect 153 0 146 1;
#X connect 154 0 155 0;
#X connect 155 0 149 0;
#X connect 156 0 155 0;
#X connect 160 0 161 0;
#X connect 161 0 151 0;
#X connect 161 0 166 0;
#X connect 163 0 164 0;
#X connect 164 0 153 1;
#X connect 164 0 147 1;
#X connect 165 0 164 0;
#X connect 166 0 165 0;
#X connect 168 0 55 0;
#X connect 168 1 170 0;
#X connect 169 0 130 0;
#X connect 170 0 174 1;
#X connect 171 0 174 0;
#X connect 174 0 130 0;
#X connect 175 0 176 0;
#X connect 175 1 190 0;
#X connect 176 0 197 0;
#X connect 176 1 186 0;
#X connect 177 0 175 0;
#X connect 178 0 175 0;
#X connect 179 0 175 0;
#X connect 180 1 175 0;
#X connect 182 0 198 1;
#X connect 183 0 150 0;
#X connect 184 0 198 0;
#X connect 186 0 189 1;
#X connect 187 0 189 0;
#X connect 189 0 150 0;
#X connect 190 0 183 1;
#X connect 192 0 183 0;
#X connect 196 0 180 0;
#X connect 197 0 182 0;
#X connect 197 1 199 0;
#X connect 198 0 150 0;
#X connect 199 0 203 1;
#X connect 200 0 203 0;
#X connect 203 0 150 0;
#X connect 204 0 180 1;
#X connect 204 0 196 0;
#X connect 204 0 181 0;
